<svg width="49" height="49" viewBox="0 0 49 49" fill="none" xmlns="http://www.w3.org/2000/svg">
<path d="M6.8775 0.4375C3.08551 0.4375 0.00250244 3.52051 0.00250244 7.3125V41.6875C0.00250244 45.4795 3.08551 48.5625 6.8775 48.5625H41.2525C45.0445 48.5625 48.1275 45.4795 48.1275 41.6875V7.3125C48.1275 3.52051 45.0445 0.4375 41.2525 0.4375H6.8775ZM20.6275 24.5H25.7838C27.6851 24.5 29.2213 22.9639 29.2213 21.0625C29.2213 19.1611 27.6851 17.625 25.7838 17.625H20.6275V24.5ZM25.7838 31.375H20.6275V34.8125C20.6275 36.7139 19.0914 38.25 17.19 38.25C15.2886 38.25 13.7525 36.7139 13.7525 34.8125V15.0469C13.7525 12.6729 15.6754 10.75 18.0494 10.75H25.7838C31.4771 10.75 36.0963 15.3691 36.0963 21.0625C36.0963 26.7559 31.4771 31.375 25.7838 31.375Z" fill="white"/>
</svg>
