<svg width="46" height="45" viewBox="0 0 46 45" fill="none" xmlns="http://www.w3.org/2000/svg">
<path d="M24.3635 8.39355H21.551V24.0478L31.7123 28.8773L32.9197 26.337L24.3635 22.2705V8.39355Z" fill="white"/>
<path d="M23 1.40625C11.3503 1.40625 1.90625 10.8503 1.90625 22.5C1.90625 34.1497 11.3503 43.5938 23 43.5938C34.6497 43.5938 44.0938 34.1497 44.0938 22.5C44.0938 10.8503 34.6497 1.40625 23 1.40625ZM23 40.7812C12.9036 40.7812 4.71875 32.5964 4.71875 22.5C4.71875 12.4036 12.9036 4.21875 23 4.21875C33.0964 4.21875 41.2812 12.4036 41.2812 22.5C41.2812 32.5964 33.0964 40.7812 23 40.7812Z" fill="white"/>
</svg>