<svg width="37" height="43" viewBox="0 0 37 43" fill="none" xmlns="http://www.w3.org/2000/svg">
<path d="M27.6667 37.5417H9.33332C9.33332 38.7572 8.85044 39.923 7.9909 40.7826C7.13135 41.6421 5.96557 42.125 4.74999 42.125C3.53441 42.125 2.36863 41.6421 1.50908 40.7826C0.649542 39.923 0.166656 38.7572 0.166656 37.5417V5.45833C0.166656 4.24276 0.649542 3.07697 1.50908 2.21743C2.36863 1.35789 3.53441 0.875 4.74999 0.875H32.25C33.4656 0.875 34.6314 1.35789 35.4909 2.21743C36.3504 3.07697 36.8333 4.24276 36.8333 5.45833V37.5417C36.8333 38.7572 36.3504 39.923 35.4909 40.7826C34.6314 41.6421 33.4656 42.125 32.25 42.125C31.0344 42.125 29.8686 41.6421 29.0091 40.7826C28.1495 39.923 27.6667 38.7572 27.6667 37.5417ZM29.9583 28.375C30.5661 28.375 31.149 28.1336 31.5788 27.7038C32.0085 27.274 32.25 26.6911 32.25 26.0833C32.25 25.4755 32.0085 24.8927 31.5788 24.4629C31.149 24.0331 30.5661 23.7917 29.9583 23.7917C29.3505 23.7917 28.7676 24.0331 28.3379 24.4629C27.9081 24.8927 27.6667 25.4755 27.6667 26.0833C27.6667 26.6911 27.9081 27.274 28.3379 27.7038C28.7676 28.1336 29.3505 28.375 29.9583 28.375ZM7.04166 28.375C7.64944 28.375 8.23234 28.1336 8.66211 27.7038C9.09188 27.274 9.33332 26.6911 9.33332 26.0833C9.33332 25.4755 9.09188 24.8927 8.66211 24.4629C8.23234 24.0331 7.64944 23.7917 7.04166 23.7917C6.43387 23.7917 5.85097 24.0331 5.4212 24.4629C4.99143 24.8927 4.74999 25.4755 4.74999 26.0833C4.74999 26.6911 4.99143 27.274 5.4212 27.7038C5.85097 28.1336 6.43387 28.375 7.04166 28.375ZM4.74999 5.45833V19.2083H32.25V5.45833H4.74999Z" fill="white"/>
</svg>
