<svg width="56" height="55" viewBox="0 0 56 55" fill="none" xmlns="http://www.w3.org/2000/svg">
<path d="M50.1886 1.71875H5.07141C3.46008 1.71875 1.84875 3.33008 1.84875 4.94141V41.1967C1.84875 42.808 3.46008 44.4194 5.07141 44.4194H21.1847V47.642C21.1847 49.8798 18.2817 50.8647 14.7394 50.8647V53.2812H40.5206V50.8638C36.9774 50.8638 34.0753 49.879 34.0753 47.6412V44.4185H50.1886C51.7999 44.4185 53.4113 42.8072 53.4113 41.1959V4.94141C53.4113 3.33008 51.7999 1.71875 50.1886 1.71875ZM51.6925 41.1967C51.6925 41.8576 50.8486 42.7006 50.1886 42.7006H5.07141C4.41055 42.7006 3.5675 41.8576 3.5675 41.1967V37.9741H51.6925V41.1967Z" fill="white"/>
<path d="M27.63 42.0028C28.0752 42.0028 28.4361 41.6419 28.4361 41.1967C28.4361 40.7515 28.0752 40.3906 27.63 40.3906C27.1848 40.3906 26.8239 40.7515 26.8239 41.1967C26.8239 41.6419 27.1848 42.0028 27.63 42.0028Z" fill="white"/>
</svg>
