<svg width="55" height="55" viewBox="0 0 55 55" fill="none" xmlns="http://www.w3.org/2000/svg">
<g clip-path="url(#clip0_396_562)">
<path d="M10.0427 0C4.47947 0 0 4.47947 0 10.0427V44.9574C0 50.5206 4.47947 55.0001 10.0427 55.0001H28.9661V33.4985H23.2805V25.7572H28.9661V19.1435C28.9661 13.9473 32.3255 9.17642 40.0641 9.17642C43.1973 9.17642 45.5143 9.47721 45.5143 9.47721L45.332 16.7063C45.332 16.7063 42.9691 16.684 40.3906 16.684C37.6 16.684 37.1525 17.9698 37.1525 20.1043V25.7573H45.5537L45.1877 33.4985H37.1525V55.0001H44.9573C50.5205 55.0001 55 50.5206 55 44.9574V10.0427C55 4.47953 50.5205 5.5e-05 44.9573 5.5e-05L10.0427 0Z" fill="#D2D2D2"/>
</g>
<defs>
<clipPath id="clip0_396_562">
<rect width="55" height="55" fill="white"/>
</clipPath>
</defs>
</svg>