<svg width="55" height="52" viewBox="0 0 55 52" fill="none" xmlns="http://www.w3.org/2000/svg">
<rect width="54.9971" height="51.5239" rx="5" fill="white"/>
<path d="M25.8333 28.539L6.61875 41.3495C6.46189 41.4538 6.27965 41.5137 6.09144 41.5227C5.90323 41.5317 5.71611 41.4895 5.55 41.4006C5.38389 41.3117 5.24501 41.1793 5.14815 41.0177C5.0513 40.8561 5.0001 40.6712 5 40.4828V11.0411C5.0001 10.8527 5.0513 10.6678 5.14815 10.5062C5.24501 10.3446 5.38389 10.2123 5.55 10.1233C5.71611 10.0344 5.90323 9.99219 6.09144 10.0012C6.27965 10.0102 6.46189 10.0701 6.61875 10.1745L25.8333 22.9849V11.0411C25.8334 10.8527 25.8846 10.6678 25.9815 10.5062C26.0783 10.3446 26.2172 10.2123 26.3833 10.1233C26.5494 10.0344 26.7366 9.99219 26.9248 10.0012C27.113 10.0102 27.2952 10.0701 27.4521 10.1745L49.5333 24.8953C49.676 24.9904 49.793 25.1193 49.8739 25.2705C49.9548 25.4217 49.9971 25.5905 49.9971 25.762C49.9971 25.9334 49.9548 26.1023 49.8739 26.2534C49.793 26.4046 49.676 26.5335 49.5333 26.6286L27.4521 41.3495C27.2952 41.4538 27.113 41.5137 26.9248 41.5227C26.7366 41.5317 26.5494 41.4895 26.3833 41.4006C26.2172 41.3117 26.0783 41.1793 25.9815 41.0177C25.8846 40.8561 25.8334 40.6712 25.8333 40.4828V28.539V28.539Z" fill="#377BFF"/>
</svg>