<svg width="199" height="50" viewBox="0 0 199 50" fill="none" xmlns="http://www.w3.org/2000/svg">
<path d="M25 27.7771L5.78544 40.5875C5.62857 40.6919 5.44633 40.7518 5.25813 40.7608C5.06992 40.7698 4.8828 40.7276 4.71669 40.6386C4.55057 40.5497 4.4117 40.4174 4.31484 40.2557C4.21799 40.0941 4.16678 39.9093 4.16669 39.7208V10.2792C4.16678 10.0907 4.21799 9.90588 4.31484 9.74426C4.4117 9.58263 4.55057 9.45031 4.71669 9.36137C4.8828 9.27244 5.06992 9.23022 5.25813 9.23923C5.44633 9.24823 5.62857 9.30811 5.78544 9.4125L25 22.2229V10.2792C25.0001 10.0907 25.0513 9.90588 25.1482 9.74426C25.245 9.58263 25.3839 9.45031 25.55 9.36137C25.7161 9.27244 25.9033 9.23022 26.0915 9.23923C26.2797 9.24823 26.4619 9.30811 26.6188 9.4125L48.7 24.1333C48.8427 24.2285 48.9597 24.3573 49.0406 24.5085C49.1215 24.6597 49.1638 24.8285 49.1638 25C49.1638 25.1715 49.1215 25.3403 49.0406 25.4915C48.9597 25.6427 48.8427 25.7715 48.7 25.8667L26.6188 40.5875C26.4619 40.6919 26.2797 40.7518 26.0915 40.7608C25.9033 40.7698 25.7161 40.7276 25.55 40.6386C25.3839 40.5497 25.245 40.4174 25.1482 40.2557C25.0513 40.0941 25.0001 39.9093 25 39.7208V27.7771V27.7771Z" fill="#377BFF"/>
<path d="M61.9805 10.9375H67.6289C68.9102 10.9375 69.9922 11.1328 70.875 11.5234C71.7656 11.9141 72.4414 12.4922 72.9023 13.2578C73.3711 14.0156 73.6055 14.9492 73.6055 16.0586C73.6055 16.8398 73.4453 17.5547 73.125 18.2031C72.8125 18.8438 72.3594 19.3906 71.7656 19.8438C71.1797 20.2891 70.4766 20.6211 69.6562 20.8398L69.0234 21.0859H63.7148L63.6914 19.2461H67.6992C68.5117 19.2461 69.1875 19.1055 69.7266 18.8242C70.2656 18.5352 70.6719 18.1484 70.9453 17.6641C71.2188 17.1797 71.3555 16.6445 71.3555 16.0586C71.3555 15.4023 71.2266 14.8281 70.9688 14.3359C70.7109 13.8438 70.3047 13.4648 69.75 13.1992C69.2031 12.9258 68.4961 12.7891 67.6289 12.7891H64.2422V28H61.9805V10.9375ZM71.9531 28L67.8047 20.2656L70.1602 20.2539L74.3672 27.8594V28H71.9531ZM98.4094 26.1602V28H89.3742V26.1602H98.4094ZM89.8312 10.9375V28H87.5695V10.9375H89.8312ZM97.2141 18.2734V20.1133H89.3742V18.2734H97.2141ZM98.2922 10.9375V12.7891H89.3742V10.9375H98.2922ZM114.272 10.9375V28H112.01V10.9375H114.272ZM121.42 18.6133V20.4648H113.78V18.6133H121.42ZM122.58 10.9375V12.7891H113.78V10.9375H122.58ZM146.423 26.1602V28H137.892V26.1602H146.423ZM138.338 10.9375V28H136.076V10.9375H138.338ZM170.653 26.1602V28H161.618V26.1602H170.653ZM162.075 10.9375V28H159.813V10.9375H162.075ZM169.458 18.2734V20.1133H161.618V18.2734H169.458ZM170.536 10.9375V12.7891H161.618V10.9375H170.536ZM185.719 10.9375L189.82 17.4766L193.922 10.9375H196.559L191.168 19.3867L196.688 28H194.027L189.82 21.332L185.613 28H182.953L188.473 19.3867L183.082 10.9375H185.719Z" fill="black"/>
<path d="M64.884 38.668C65.356 38.756 65.756 38.996 66.084 39.388C66.412 39.78 66.576 40.236 66.576 40.756C66.576 41.18 66.468 41.564 66.252 41.908C66.044 42.244 65.736 42.512 65.328 42.712C64.92 42.904 64.432 43 63.864 43H60.96V34.612H63.78C64.628 34.612 65.272 34.808 65.712 35.2C66.16 35.592 66.384 36.1 66.384 36.724C66.384 37.244 66.244 37.668 65.964 37.996C65.684 38.316 65.324 38.54 64.884 38.668ZM61.8 38.32H63.756C64.324 38.32 64.76 38.188 65.064 37.924C65.376 37.652 65.532 37.28 65.532 36.808C65.532 36.344 65.376 35.98 65.064 35.716C64.76 35.452 64.312 35.32 63.72 35.32H61.8V38.32ZM63.804 42.292C64.412 42.292 64.884 42.148 65.22 41.86C65.564 41.572 65.736 41.176 65.736 40.672C65.736 40.168 65.556 39.768 65.196 39.472C64.844 39.168 64.368 39.016 63.768 39.016H61.8V42.292H63.804ZM67.3762 39.712C67.3762 39.04 67.5082 38.452 67.7722 37.948C68.0442 37.436 68.4162 37.044 68.8882 36.772C69.3682 36.492 69.9082 36.352 70.5082 36.352C71.1322 36.352 71.6682 36.496 72.1162 36.784C72.5722 37.072 72.9002 37.44 73.1002 37.888V36.448H73.9402V43H73.1002V41.548C72.8922 41.996 72.5602 42.368 72.1042 42.664C71.6562 42.952 71.1202 43.096 70.4962 43.096C69.9042 43.096 69.3682 42.956 68.8882 42.676C68.4162 42.396 68.0442 42 67.7722 41.488C67.5082 40.976 67.3762 40.384 67.3762 39.712ZM73.1002 39.724C73.1002 39.196 72.9922 38.732 72.7762 38.332C72.5602 37.932 72.2642 37.624 71.8882 37.408C71.5202 37.192 71.1122 37.084 70.6642 37.084C70.2002 37.084 69.7842 37.188 69.4162 37.396C69.0482 37.604 68.7562 37.908 68.5402 38.308C68.3322 38.7 68.2282 39.168 68.2282 39.712C68.2282 40.248 68.3322 40.72 68.5402 41.128C68.7562 41.528 69.0482 41.836 69.4162 42.052C69.7842 42.26 70.2002 42.364 70.6642 42.364C71.1122 42.364 71.5202 42.256 71.8882 42.04C72.2642 41.824 72.5602 41.516 72.7762 41.116C72.9922 40.716 73.1002 40.252 73.1002 39.724ZM75.1138 39.712C75.1138 39.04 75.2498 38.452 75.5218 37.948C75.7938 37.436 76.1658 37.044 76.6378 36.772C77.1178 36.492 77.6578 36.352 78.2578 36.352C78.8338 36.352 79.3538 36.492 79.8178 36.772C80.2818 37.052 80.6218 37.416 80.8378 37.864V34.12H81.6778V43H80.8378V41.536C80.6378 41.992 80.3098 42.368 79.8538 42.664C79.3978 42.952 78.8618 43.096 78.2458 43.096C77.6458 43.096 77.1058 42.956 76.6258 42.676C76.1538 42.396 75.7818 42 75.5098 41.488C75.2458 40.976 75.1138 40.384 75.1138 39.712ZM80.8378 39.724C80.8378 39.196 80.7298 38.732 80.5138 38.332C80.2978 37.932 80.0018 37.624 79.6258 37.408C79.2578 37.192 78.8498 37.084 78.4018 37.084C77.9378 37.084 77.5218 37.188 77.1538 37.396C76.7858 37.604 76.4938 37.908 76.2778 38.308C76.0698 38.7 75.9658 39.168 75.9658 39.712C75.9658 40.248 76.0698 40.72 76.2778 41.128C76.4938 41.528 76.7858 41.836 77.1538 42.052C77.5218 42.26 77.9378 42.364 78.4018 42.364C78.8498 42.364 79.2578 42.256 79.6258 42.04C80.0018 41.824 80.2978 41.516 80.5138 41.116C80.7298 40.716 80.8378 40.252 80.8378 39.724ZM82.8515 39.712C82.8515 39.04 82.9835 38.452 83.2475 37.948C83.5195 37.436 83.8915 37.044 84.3635 36.772C84.8435 36.492 85.3835 36.352 85.9835 36.352C86.6075 36.352 87.1435 36.496 87.5915 36.784C88.0475 37.072 88.3755 37.44 88.5755 37.888V36.448H89.4155V43H88.5755V41.548C88.3675 41.996 88.0355 42.368 87.5795 42.664C87.1315 42.952 86.5955 43.096 85.9715 43.096C85.3795 43.096 84.8435 42.956 84.3635 42.676C83.8915 42.396 83.5195 42 83.2475 41.488C82.9835 40.976 82.8515 40.384 82.8515 39.712ZM88.5755 39.724C88.5755 39.196 88.4675 38.732 88.2515 38.332C88.0355 37.932 87.7395 37.624 87.3635 37.408C86.9955 37.192 86.5875 37.084 86.1395 37.084C85.6755 37.084 85.2595 37.188 84.8915 37.396C84.5235 37.604 84.2315 37.908 84.0155 38.308C83.8075 38.7 83.7035 39.168 83.7035 39.712C83.7035 40.248 83.8075 40.72 84.0155 41.128C84.2315 41.528 84.5235 41.836 84.8915 42.052C85.2595 42.26 85.6755 42.364 86.1395 42.364C86.5875 42.364 86.9955 42.256 87.3635 42.04C87.7395 41.824 88.0355 41.516 88.2515 41.116C88.4675 40.716 88.5755 40.252 88.5755 39.724ZM94.0451 36.328C94.8291 36.328 95.4691 36.572 95.9651 37.06C96.4611 37.54 96.7091 38.24 96.7091 39.16V43H95.8811V39.256C95.8811 38.544 95.7011 38 95.3411 37.624C94.9891 37.248 94.5051 37.06 93.8891 37.06C93.2571 37.06 92.7531 37.26 92.3771 37.66C92.0011 38.06 91.8131 38.648 91.8131 39.424V43H90.9731V36.448H91.8131V37.564C92.0211 37.164 92.3211 36.86 92.7131 36.652C93.1051 36.436 93.5491 36.328 94.0451 36.328ZM98.6269 35.212C98.4589 35.212 98.3149 35.152 98.1949 35.032C98.0749 34.912 98.0149 34.764 98.0149 34.588C98.0149 34.412 98.0749 34.268 98.1949 34.156C98.3149 34.036 98.4589 33.976 98.6269 33.976C98.7949 33.976 98.9389 34.036 99.0589 34.156C99.1789 34.268 99.2389 34.412 99.2389 34.588C99.2389 34.764 99.1789 34.912 99.0589 35.032C98.9389 35.152 98.7949 35.212 98.6269 35.212ZM99.0469 36.448V43H98.2069V36.448H99.0469ZM100.205 39.712C100.205 39.04 100.337 38.452 100.601 37.948C100.873 37.436 101.245 37.044 101.717 36.772C102.197 36.492 102.737 36.352 103.337 36.352C103.961 36.352 104.497 36.496 104.945 36.784C105.401 37.072 105.729 37.44 105.929 37.888V36.448H106.769V43H105.929V41.548C105.721 41.996 105.389 42.368 104.933 42.664C104.485 42.952 103.949 43.096 103.325 43.096C102.733 43.096 102.197 42.956 101.717 42.676C101.245 42.396 100.873 42 100.601 41.488C100.337 40.976 100.205 40.384 100.205 39.712ZM105.929 39.724C105.929 39.196 105.821 38.732 105.605 38.332C105.389 37.932 105.093 37.624 104.717 37.408C104.349 37.192 103.941 37.084 103.493 37.084C103.029 37.084 102.613 37.188 102.245 37.396C101.877 37.604 101.585 37.908 101.369 38.308C101.161 38.7 101.057 39.168 101.057 39.712C101.057 40.248 101.161 40.72 101.369 41.128C101.585 41.528 101.877 41.836 102.245 42.052C102.613 42.26 103.029 42.364 103.493 42.364C103.941 42.364 104.349 42.256 104.717 42.04C105.093 41.824 105.389 41.516 105.605 41.116C105.821 40.716 105.929 40.252 105.929 39.724ZM112.088 37.888C112.296 37.448 112.624 37.084 113.072 36.796C113.528 36.5 114.068 36.352 114.692 36.352C115.284 36.352 115.816 36.492 116.288 36.772C116.768 37.044 117.14 37.436 117.404 37.948C117.676 38.452 117.812 39.04 117.812 39.712C117.812 40.384 117.676 40.976 117.404 41.488C117.14 42 116.768 42.396 116.288 42.676C115.816 42.956 115.284 43.096 114.692 43.096C114.076 43.096 113.54 42.952 113.084 42.664C112.628 42.368 112.296 42 112.088 41.56V46.096H111.26V36.448H112.088V37.888ZM116.96 39.712C116.96 39.168 116.852 38.7 116.636 38.308C116.428 37.908 116.14 37.604 115.772 37.396C115.404 37.188 114.988 37.084 114.524 37.084C114.076 37.084 113.664 37.192 113.288 37.408C112.92 37.624 112.628 37.932 112.412 38.332C112.196 38.732 112.088 39.196 112.088 39.724C112.088 40.252 112.196 40.716 112.412 41.116C112.628 41.516 112.92 41.824 113.288 42.04C113.664 42.256 114.076 42.364 114.524 42.364C114.988 42.364 115.404 42.26 115.772 42.052C116.14 41.836 116.428 41.528 116.636 41.128C116.852 40.72 116.96 40.248 116.96 39.712ZM121.253 43.096C120.501 43.096 119.885 42.924 119.405 42.58C118.933 42.228 118.669 41.752 118.613 41.152H119.477C119.517 41.52 119.689 41.82 119.993 42.052C120.305 42.276 120.721 42.388 121.241 42.388C121.697 42.388 122.053 42.28 122.309 42.064C122.573 41.848 122.705 41.58 122.705 41.26C122.705 41.036 122.633 40.852 122.489 40.708C122.345 40.564 122.161 40.452 121.937 40.372C121.721 40.284 121.425 40.192 121.049 40.096C120.561 39.968 120.165 39.84 119.861 39.712C119.557 39.584 119.297 39.396 119.081 39.148C118.873 38.892 118.769 38.552 118.769 38.128C118.769 37.808 118.865 37.512 119.057 37.24C119.249 36.968 119.521 36.752 119.873 36.592C120.225 36.432 120.625 36.352 121.073 36.352C121.777 36.352 122.345 36.532 122.777 36.892C123.209 37.244 123.441 37.732 123.473 38.356H122.633C122.609 37.972 122.457 37.664 122.177 37.432C121.905 37.192 121.529 37.072 121.049 37.072C120.625 37.072 120.281 37.172 120.017 37.372C119.753 37.572 119.621 37.82 119.621 38.116C119.621 38.372 119.697 38.584 119.849 38.752C120.009 38.912 120.205 39.04 120.437 39.136C120.669 39.224 120.981 39.324 121.373 39.436C121.845 39.564 122.221 39.688 122.501 39.808C122.781 39.928 123.021 40.104 123.221 40.336C123.421 40.568 123.525 40.876 123.533 41.26C123.533 41.612 123.437 41.928 123.245 42.208C123.053 42.48 122.785 42.696 122.441 42.856C122.097 43.016 121.701 43.096 121.253 43.096ZM130.155 36.448L126.267 46.084H125.391L126.663 42.964L123.975 36.448H124.899L127.131 42.04L129.291 36.448H130.155ZM130.55 39.724C130.55 39.044 130.686 38.452 130.958 37.948C131.23 37.436 131.606 37.044 132.086 36.772C132.566 36.492 133.114 36.352 133.73 36.352C134.538 36.352 135.202 36.552 135.722 36.952C136.25 37.352 136.59 37.896 136.742 38.584H135.842C135.73 38.112 135.486 37.744 135.11 37.48C134.742 37.208 134.282 37.072 133.73 37.072C133.29 37.072 132.894 37.172 132.542 37.372C132.19 37.572 131.91 37.872 131.702 38.272C131.502 38.664 131.402 39.148 131.402 39.724C131.402 40.3 131.502 40.788 131.702 41.188C131.91 41.588 132.19 41.888 132.542 42.088C132.894 42.288 133.29 42.388 133.73 42.388C134.282 42.388 134.742 42.256 135.11 41.992C135.486 41.72 135.73 41.344 135.842 40.864H136.742C136.59 41.536 136.25 42.076 135.722 42.484C135.194 42.892 134.53 43.096 133.73 43.096C133.114 43.096 132.566 42.96 132.086 42.688C131.606 42.408 131.23 42.016 130.958 41.512C130.686 41 130.55 40.404 130.55 39.724ZM141.053 36.328C141.549 36.328 141.993 36.432 142.385 36.64C142.785 36.848 143.097 37.168 143.321 37.6C143.553 38.024 143.669 38.544 143.669 39.16V43H142.841V39.256C142.841 38.544 142.661 38 142.301 37.624C141.949 37.248 141.465 37.06 140.849 37.06C140.217 37.06 139.713 37.26 139.337 37.66C138.961 38.06 138.773 38.648 138.773 39.424V43H137.933V34.12H138.773V37.564C138.981 37.172 139.285 36.868 139.685 36.652C140.093 36.436 140.549 36.328 141.053 36.328ZM148.035 43.096C147.419 43.096 146.863 42.96 146.367 42.688C145.879 42.408 145.491 42.016 145.203 41.512C144.923 41 144.783 40.404 144.783 39.724C144.783 39.044 144.927 38.452 145.215 37.948C145.503 37.436 145.895 37.044 146.391 36.772C146.887 36.492 147.443 36.352 148.059 36.352C148.675 36.352 149.231 36.492 149.727 36.772C150.231 37.044 150.623 37.436 150.903 37.948C151.191 38.452 151.335 39.044 151.335 39.724C151.335 40.396 151.191 40.988 150.903 41.5C150.615 42.012 150.219 42.408 149.715 42.688C149.211 42.96 148.651 43.096 148.035 43.096ZM148.035 42.364C148.467 42.364 148.867 42.268 149.235 42.076C149.603 41.876 149.899 41.58 150.123 41.188C150.355 40.788 150.471 40.3 150.471 39.724C150.471 39.148 150.359 38.664 150.135 38.272C149.911 37.872 149.615 37.576 149.247 37.384C148.879 37.184 148.479 37.084 148.047 37.084C147.615 37.084 147.215 37.184 146.847 37.384C146.479 37.576 146.183 37.872 145.959 38.272C145.743 38.664 145.635 39.148 145.635 39.724C145.635 40.3 145.743 40.788 145.959 41.188C146.183 41.58 146.475 41.876 146.835 42.076C147.203 42.268 147.603 42.364 148.035 42.364ZM153.346 34.12V43H152.506V34.12H153.346ZM157.756 43.096C157.14 43.096 156.584 42.96 156.088 42.688C155.6 42.408 155.212 42.016 154.924 41.512C154.644 41 154.504 40.404 154.504 39.724C154.504 39.044 154.648 38.452 154.936 37.948C155.224 37.436 155.616 37.044 156.112 36.772C156.608 36.492 157.164 36.352 157.78 36.352C158.396 36.352 158.952 36.492 159.448 36.772C159.952 37.044 160.344 37.436 160.624 37.948C160.912 38.452 161.056 39.044 161.056 39.724C161.056 40.396 160.912 40.988 160.624 41.5C160.336 42.012 159.94 42.408 159.436 42.688C158.932 42.96 158.372 43.096 157.756 43.096ZM157.756 42.364C158.188 42.364 158.588 42.268 158.956 42.076C159.324 41.876 159.62 41.58 159.844 41.188C160.076 40.788 160.192 40.3 160.192 39.724C160.192 39.148 160.08 38.664 159.856 38.272C159.632 37.872 159.336 37.576 158.968 37.384C158.6 37.184 158.2 37.084 157.768 37.084C157.336 37.084 156.936 37.184 156.568 37.384C156.2 37.576 155.904 37.872 155.68 38.272C155.464 38.664 155.356 39.148 155.356 39.724C155.356 40.3 155.464 40.788 155.68 41.188C155.904 41.58 156.196 41.876 156.556 42.076C156.924 42.268 157.324 42.364 157.756 42.364ZM164.975 36.352C165.591 36.352 166.127 36.496 166.583 36.784C167.039 37.072 167.367 37.436 167.567 37.876V36.448H168.407V43.168C168.407 43.768 168.275 44.3 168.011 44.764C167.755 45.228 167.395 45.584 166.931 45.832C166.467 46.088 165.939 46.216 165.347 46.216C164.507 46.216 163.807 46.016 163.247 45.616C162.695 45.216 162.351 44.672 162.215 43.984H163.043C163.187 44.44 163.459 44.804 163.859 45.076C164.267 45.348 164.763 45.484 165.347 45.484C165.771 45.484 166.151 45.392 166.487 45.208C166.823 45.032 167.087 44.768 167.279 44.416C167.471 44.064 167.567 43.648 167.567 43.168V41.548C167.359 41.996 167.027 42.368 166.571 42.664C166.123 42.952 165.591 43.096 164.975 43.096C164.375 43.096 163.835 42.956 163.355 42.676C162.883 42.396 162.511 42 162.239 41.488C161.975 40.976 161.843 40.384 161.843 39.712C161.843 39.04 161.975 38.452 162.239 37.948C162.511 37.436 162.883 37.044 163.355 36.772C163.835 36.492 164.375 36.352 164.975 36.352ZM167.567 39.724C167.567 39.196 167.459 38.732 167.243 38.332C167.027 37.932 166.731 37.624 166.355 37.408C165.987 37.192 165.579 37.084 165.131 37.084C164.667 37.084 164.251 37.188 163.883 37.396C163.515 37.604 163.223 37.908 163.007 38.308C162.799 38.7 162.695 39.168 162.695 39.712C162.695 40.248 162.799 40.72 163.007 41.128C163.223 41.528 163.515 41.836 163.883 42.052C164.251 42.26 164.667 42.364 165.131 42.364C165.579 42.364 165.987 42.256 166.355 42.04C166.731 41.824 167.027 41.516 167.243 41.116C167.459 40.716 167.567 40.252 167.567 39.724ZM170.385 35.212C170.217 35.212 170.073 35.152 169.953 35.032C169.833 34.912 169.773 34.764 169.773 34.588C169.773 34.412 169.833 34.268 169.953 34.156C170.073 34.036 170.217 33.976 170.385 33.976C170.553 33.976 170.697 34.036 170.817 34.156C170.937 34.268 170.997 34.412 170.997 34.588C170.997 34.764 170.937 34.912 170.817 35.032C170.697 35.152 170.553 35.212 170.385 35.212ZM170.805 36.448V43H169.965V36.448H170.805ZM171.963 39.724C171.963 39.044 172.099 38.452 172.371 37.948C172.643 37.436 173.019 37.044 173.499 36.772C173.979 36.492 174.527 36.352 175.143 36.352C175.951 36.352 176.615 36.552 177.135 36.952C177.663 37.352 178.003 37.896 178.155 38.584H177.255C177.143 38.112 176.899 37.744 176.523 37.48C176.155 37.208 175.695 37.072 175.143 37.072C174.703 37.072 174.307 37.172 173.955 37.372C173.603 37.572 173.323 37.872 173.115 38.272C172.915 38.664 172.815 39.148 172.815 39.724C172.815 40.3 172.915 40.788 173.115 41.188C173.323 41.588 173.603 41.888 173.955 42.088C174.307 42.288 174.703 42.388 175.143 42.388C175.695 42.388 176.155 42.256 176.523 41.992C176.899 41.72 177.143 41.344 177.255 40.864H178.155C178.003 41.536 177.663 42.076 177.135 42.484C176.607 42.892 175.943 43.096 175.143 43.096C174.527 43.096 173.979 42.96 173.499 42.688C173.019 42.408 172.643 42.016 172.371 41.512C172.099 41 171.963 40.404 171.963 39.724ZM179.791 42.304H183.223V43H178.831V42.304L182.203 37.144H178.891V36.448H183.163V37.144L179.791 42.304ZM187.355 36.328C188.139 36.328 188.779 36.572 189.275 37.06C189.771 37.54 190.019 38.24 190.019 39.16V43H189.191V39.256C189.191 38.544 189.011 38 188.651 37.624C188.299 37.248 187.815 37.06 187.199 37.06C186.567 37.06 186.063 37.26 185.687 37.66C185.311 38.06 185.123 38.648 185.123 39.424V43H184.283V36.448H185.123V37.564C185.331 37.164 185.631 36.86 186.023 36.652C186.415 36.436 186.859 36.328 187.355 36.328ZM197.445 39.388C197.445 39.676 197.437 39.896 197.421 40.048H191.985C192.009 40.544 192.129 40.968 192.345 41.32C192.561 41.672 192.845 41.94 193.197 42.124C193.549 42.3 193.933 42.388 194.349 42.388C194.893 42.388 195.349 42.256 195.717 41.992C196.093 41.728 196.341 41.372 196.461 40.924H197.349C197.189 41.564 196.845 42.088 196.317 42.496C195.797 42.896 195.141 43.096 194.349 43.096C193.733 43.096 193.181 42.96 192.693 42.688C192.205 42.408 191.821 42.016 191.541 41.512C191.269 41 191.133 40.404 191.133 39.724C191.133 39.044 191.269 38.448 191.541 37.936C191.813 37.424 192.193 37.032 192.681 36.76C193.169 36.488 193.725 36.352 194.349 36.352C194.973 36.352 195.517 36.488 195.981 36.76C196.453 37.032 196.813 37.4 197.061 37.864C197.317 38.32 197.445 38.828 197.445 39.388ZM196.593 39.364C196.601 38.876 196.501 38.46 196.293 38.116C196.093 37.772 195.817 37.512 195.465 37.336C195.113 37.16 194.729 37.072 194.313 37.072C193.689 37.072 193.157 37.272 192.717 37.672C192.277 38.072 192.033 38.636 191.985 39.364H196.593Z" fill="#787878"/>
</svg>
