<svg width="202" height="46" viewBox="0 0 202 46" fill="none" xmlns="http://www.w3.org/2000/svg">
<g clip-path="url(#clip0_215_301)">
<path d="M40.0674 0.195496H6.28477C2.97564 0.195496 0.283203 2.88865 0.283203 6.19921V39.979C0.283203 43.291 2.97636 45.9835 6.28477 45.9835H40.0674C43.3773 45.9835 46.0712 43.291 46.0712 39.979V6.19921C46.0712 2.88865 43.3773 0.195496 40.0674 0.195496V0.195496ZM32.9935 29.4853V41.0607H18.4417V36.8855H16.3041C15.5978 36.8853 14.8985 36.746 14.246 36.4756C13.5936 36.2051 13.0008 35.8088 12.5015 35.3092C12.0022 34.8096 11.6061 34.2166 11.336 33.564C11.0659 32.9114 10.927 32.212 10.9272 31.5057V27.6942H9.09867C8.80681 27.694 8.52691 27.5781 8.32027 27.372C8.11362 27.1659 7.99706 26.8863 7.99611 26.5945C7.99611 26.4414 8.02342 26.2969 8.07805 26.1668L10.9272 18.9922C10.9272 18.9922 11.2219 16.0202 11.49 14.8824C12.6759 9.7635 18.3835 5.11821 24.5712 5.11821C32.0994 5.11821 38.2052 11.2247 38.2052 18.7594C38.2052 23.1107 36.1668 26.9891 32.9935 29.4853V29.4853Z" fill="#377BFF"/>
<path d="M33.1552 10.0467L31.4848 11.2233C31.233 11.0741 30.9687 10.9471 30.6949 10.8438C30.6165 10.815 30.5389 10.7942 30.4606 10.7705L30.0962 8.68466H28.088L27.7487 10.6928C27.3822 10.787 27.0307 10.925 26.6965 11.0989L24.9686 9.87779L23.544 11.2995L24.7278 12.9627C24.5766 13.2164 24.4488 13.4835 24.3462 13.7605C24.316 13.8388 24.2966 13.9172 24.2714 13.9948L22.5471 14.2902V13.3328L21.2304 13.1071C21.1696 12.8786 21.083 12.6577 20.9724 12.4488L21.7795 11.3088L20.8466 10.378L19.7483 11.1521C19.5873 11.0553 19.4183 10.9726 19.243 10.9049C19.197 10.8876 19.1489 10.8833 19.1014 10.8689L18.8628 9.49541H17.5518L17.3225 10.8136C17.093 10.876 16.871 10.9635 16.6606 11.0745L15.5178 10.2709L14.5899 11.2017L15.3661 12.3C15.2727 12.4588 15.1857 12.6241 15.1203 12.8045C15.103 12.852 15.0915 12.8987 15.0772 12.9476L13.7108 13.1819V14.5001L15.0362 14.7272C15.0966 14.9536 15.1807 15.1735 15.287 15.382L14.4806 16.5233L15.4099 17.4548L16.5118 16.6786C16.6721 16.7728 16.8381 16.8597 17.0185 16.9273C17.0645 16.9445 17.1127 16.9481 17.1587 16.9647L17.3973 18.3382L18.7076 18.3368L18.9376 17.02C19.1676 16.9589 19.3861 16.8698 19.5974 16.7605L20.7352 17.5627L21.6674 16.6326L20.8926 15.5343C20.986 15.3755 21.0715 15.2116 21.1369 15.0327C21.1556 14.9852 21.1592 14.9356 21.1758 14.8875L22.187 14.7135V16.3623L24.1945 16.7074C24.2887 17.0739 24.4274 17.4254 24.602 17.7596L23.3838 19.4839L24.7997 20.9041L26.4694 19.7275C26.7188 19.8727 26.9797 20.0021 27.26 20.1049C27.3383 20.1351 27.4167 20.1545 27.495 20.1796L27.8587 22.2669H29.6009L29.4565 23.1028C29.2049 23.1603 28.967 23.2595 28.7435 23.3845L27.9097 22.7959L27.2564 23.4492L27.8206 24.2478C27.7213 24.4034 27.6389 24.5692 27.5748 24.7423C27.5489 24.8134 27.5388 24.8839 27.5187 24.9543L26.5074 25.1268V26.0489L27.4749 26.2164C27.5309 26.4694 27.6301 26.7066 27.7566 26.9316L27.168 27.7639L27.8184 28.4201L28.617 27.8537C28.7715 27.9522 28.9361 28.0363 29.1136 28.1024C29.1848 28.1283 29.2567 28.1383 29.3285 28.1585L29.4946 29.1647H30.4196L30.5885 28.2009C30.8415 28.1448 31.0787 28.0456 31.3037 27.9191L32.1324 28.5078L32.7886 27.853L32.2251 27.0595C32.3243 26.9043 32.4105 26.7389 32.4759 26.5607C32.5011 26.491 32.5104 26.4205 32.5306 26.3494L33.5332 26.1769V25.2518L32.5708 25.0865C32.5127 24.8358 32.4177 24.595 32.2891 24.3721L32.8763 23.5383L32.2222 22.885L31.4251 23.4449C31.2694 23.3455 31.1036 23.2626 30.9306 23.1977C30.8624 23.1725 30.7926 23.1632 30.7229 23.1445L30.5468 22.1382H29.8863L30.2054 20.2565C30.5705 20.1631 30.9206 20.0251 31.2534 19.8519L32.9834 21.073L34.4015 19.6542L33.2227 17.9846C33.3686 17.7352 33.5002 17.4728 33.6044 17.1925C33.6331 17.1149 33.6533 17.0365 33.6784 16.9582L35.7649 16.5995V14.5906L33.7546 14.2442C33.6593 13.8815 33.5236 13.5307 33.3499 13.1984L34.5682 11.4684L33.1552 10.0488V10.0467ZM18.0765 15.2368C17.6945 15.2368 17.3281 15.085 17.058 14.8149C16.7879 14.5448 16.6361 14.1784 16.6361 13.7964C16.6361 13.4144 16.7879 13.048 17.058 12.7779C17.3281 12.5078 17.6945 12.356 18.0765 12.356C18.4585 12.356 18.8249 12.5078 19.095 12.7779C19.3651 13.048 19.5169 13.4144 19.5169 13.7964C19.5169 14.1784 19.3651 14.5448 19.095 14.8149C18.8249 15.085 18.4585 15.2368 18.0765 15.2368ZM30.0279 24.2736C30.8192 24.2736 31.4611 24.9169 31.4611 25.7118C31.4615 25.9005 31.4248 26.0874 31.3531 26.2618C31.2813 26.4363 31.1758 26.5949 31.0427 26.7286C30.9097 26.8623 30.7515 26.9685 30.5774 27.041C30.4033 27.1136 30.2165 27.1511 30.0279 27.1515C29.6458 27.1517 29.2793 27.0002 29.0089 26.7302C28.7385 26.4602 28.5864 26.0939 28.5861 25.7118C28.5861 24.9169 29.2329 24.2736 30.0279 24.2736ZM28.9239 16.7958C28.1333 16.7958 27.4885 16.1539 27.4885 15.3575C27.4885 14.9769 27.6398 14.6118 27.9089 14.3426C28.1781 14.0734 28.5432 13.9222 28.9239 13.9222C29.3046 13.9222 29.6696 14.0734 29.9388 14.3426C30.208 14.6118 30.3592 14.9769 30.3592 15.3575C30.3597 15.5463 30.3229 15.7333 30.251 15.9078C30.1791 16.0823 30.0734 16.2409 29.9401 16.3745C29.8067 16.5082 29.6483 16.6141 29.4739 16.6864C29.2996 16.7587 29.1126 16.7959 28.9239 16.7958ZM14.2772 18.6674C13.8735 18.6674 13.4862 18.8278 13.2008 19.1133C12.9153 19.3987 12.7549 19.786 12.7549 20.1897C12.7549 20.5934 12.9153 20.9806 13.2008 21.2661C13.4862 21.5516 13.8735 21.712 14.2772 21.712C14.6821 21.7122 15.0706 21.5516 15.3571 21.2654C15.6437 20.9793 15.8049 20.5911 15.8053 20.1861C15.8037 19.7821 15.642 19.3952 15.3555 19.1103C15.069 18.8255 14.6812 18.6659 14.2772 18.6667V18.6674Z" fill="#377BFF"/>
</g>
<path d="M57.9805 8.9375H63.6289C64.9102 8.9375 65.9922 9.13281 66.875 9.52344C67.7656 9.91406 68.4414 10.4922 68.9023 11.2578C69.3711 12.0156 69.6055 12.9492 69.6055 14.0586C69.6055 14.8398 69.4453 15.5547 69.125 16.2031C68.8125 16.8438 68.3594 17.3906 67.7656 17.8438C67.1797 18.2891 66.4766 18.6211 65.6562 18.8398L65.0234 19.0859H59.7148L59.6914 17.2461H63.6992C64.5117 17.2461 65.1875 17.1055 65.7266 16.8242C66.2656 16.5352 66.6719 16.1484 66.9453 15.6641C67.2188 15.1797 67.3555 14.6445 67.3555 14.0586C67.3555 13.4023 67.2266 12.8281 66.9688 12.3359C66.7109 11.8438 66.3047 11.4648 65.75 11.1992C65.2031 10.9258 64.4961 10.7891 63.6289 10.7891H60.2422V26H57.9805V8.9375ZM67.9531 26L63.8047 18.2656L66.1602 18.2539L70.3672 25.8594V26H67.9531ZM95.8494 24.1602V26H86.8142V24.1602H95.8494ZM87.2712 8.9375V26H85.0095V8.9375H87.2712ZM94.6541 16.2734V18.1133H86.8142V16.2734H94.6541ZM95.7322 8.9375V10.7891H86.8142V8.9375H95.7322ZM113.152 8.9375V26H110.89V8.9375H113.152ZM120.3 16.6133V18.4648H112.66V16.6133H120.3ZM121.46 8.9375V10.7891H112.66V8.9375H121.46ZM146.743 24.1602V26H138.212V24.1602H146.743ZM138.658 8.9375V26H136.396V8.9375H138.658ZM172.413 24.1602V26H163.378V24.1602H172.413ZM163.835 8.9375V26H161.573V8.9375H163.835ZM171.218 16.2734V18.1133H163.378V16.2734H171.218ZM172.296 8.9375V10.7891H163.378V8.9375H172.296ZM188.919 8.9375L193.02 15.4766L197.122 8.9375H199.759L194.368 17.3867L199.887 26H197.227L193.02 19.332L188.813 26H186.153L191.673 17.3867L186.282 8.9375H188.919Z" fill="black"/>
<path d="M60.884 36.668C61.356 36.756 61.756 36.996 62.084 37.388C62.412 37.78 62.576 38.236 62.576 38.756C62.576 39.18 62.468 39.564 62.252 39.908C62.044 40.244 61.736 40.512 61.328 40.712C60.92 40.904 60.432 41 59.864 41H56.96V32.612H59.78C60.628 32.612 61.272 32.808 61.712 33.2C62.16 33.592 62.384 34.1 62.384 34.724C62.384 35.244 62.244 35.668 61.964 35.996C61.684 36.316 61.324 36.54 60.884 36.668ZM57.8 36.32H59.756C60.324 36.32 60.76 36.188 61.064 35.924C61.376 35.652 61.532 35.28 61.532 34.808C61.532 34.344 61.376 33.98 61.064 33.716C60.76 33.452 60.312 33.32 59.72 33.32H57.8V36.32ZM59.804 40.292C60.412 40.292 60.884 40.148 61.22 39.86C61.564 39.572 61.736 39.176 61.736 38.672C61.736 38.168 61.556 37.768 61.196 37.472C60.844 37.168 60.368 37.016 59.768 37.016H57.8V40.292H59.804ZM63.7362 37.712C63.7362 37.04 63.8682 36.452 64.1322 35.948C64.4042 35.436 64.7762 35.044 65.2482 34.772C65.7282 34.492 66.2682 34.352 66.8682 34.352C67.4922 34.352 68.0282 34.496 68.4762 34.784C68.9322 35.072 69.2602 35.44 69.4602 35.888V34.448H70.3002V41H69.4602V39.548C69.2522 39.996 68.9202 40.368 68.4642 40.664C68.0162 40.952 67.4802 41.096 66.8562 41.096C66.2642 41.096 65.7282 40.956 65.2482 40.676C64.7762 40.396 64.4042 40 64.1322 39.488C63.8682 38.976 63.7362 38.384 63.7362 37.712ZM69.4602 37.724C69.4602 37.196 69.3522 36.732 69.1362 36.332C68.9202 35.932 68.6242 35.624 68.2482 35.408C67.8802 35.192 67.4722 35.084 67.0242 35.084C66.5602 35.084 66.1442 35.188 65.7762 35.396C65.4082 35.604 65.1162 35.908 64.9002 36.308C64.6922 36.7 64.5882 37.168 64.5882 37.712C64.5882 38.248 64.6922 38.72 64.9002 39.128C65.1162 39.528 65.4082 39.836 65.7762 40.052C66.1442 40.26 66.5602 40.364 67.0242 40.364C67.4722 40.364 67.8802 40.256 68.2482 40.04C68.6242 39.824 68.9202 39.516 69.1362 39.116C69.3522 38.716 69.4602 38.252 69.4602 37.724ZM71.8338 37.712C71.8338 37.04 71.9698 36.452 72.2418 35.948C72.5138 35.436 72.8858 35.044 73.3578 34.772C73.8378 34.492 74.3778 34.352 74.9778 34.352C75.5538 34.352 76.0738 34.492 76.5378 34.772C77.0018 35.052 77.3418 35.416 77.5578 35.864V32.12H78.3978V41H77.5578V39.536C77.3578 39.992 77.0298 40.368 76.5738 40.664C76.1178 40.952 75.5818 41.096 74.9658 41.096C74.3658 41.096 73.8258 40.956 73.3458 40.676C72.8738 40.396 72.5018 40 72.2298 39.488C71.9658 38.976 71.8338 38.384 71.8338 37.712ZM77.5578 37.724C77.5578 37.196 77.4498 36.732 77.2338 36.332C77.0178 35.932 76.7218 35.624 76.3458 35.408C75.9778 35.192 75.5698 35.084 75.1218 35.084C74.6578 35.084 74.2418 35.188 73.8738 35.396C73.5058 35.604 73.2138 35.908 72.9978 36.308C72.7898 36.7 72.6858 37.168 72.6858 37.712C72.6858 38.248 72.7898 38.72 72.9978 39.128C73.2138 39.528 73.5058 39.836 73.8738 40.052C74.2418 40.26 74.6578 40.364 75.1218 40.364C75.5698 40.364 75.9778 40.256 76.3458 40.04C76.7218 39.824 77.0178 39.516 77.2338 39.116C77.4498 38.716 77.5578 38.252 77.5578 37.724ZM79.9315 37.712C79.9315 37.04 80.0635 36.452 80.3275 35.948C80.5995 35.436 80.9715 35.044 81.4435 34.772C81.9235 34.492 82.4635 34.352 83.0635 34.352C83.6875 34.352 84.2235 34.496 84.6715 34.784C85.1275 35.072 85.4555 35.44 85.6555 35.888V34.448H86.4955V41H85.6555V39.548C85.4475 39.996 85.1155 40.368 84.6595 40.664C84.2115 40.952 83.6755 41.096 83.0515 41.096C82.4595 41.096 81.9235 40.956 81.4435 40.676C80.9715 40.396 80.5995 40 80.3275 39.488C80.0635 38.976 79.9315 38.384 79.9315 37.712ZM85.6555 37.724C85.6555 37.196 85.5475 36.732 85.3315 36.332C85.1155 35.932 84.8195 35.624 84.4435 35.408C84.0755 35.192 83.6675 35.084 83.2195 35.084C82.7555 35.084 82.3395 35.188 81.9715 35.396C81.6035 35.604 81.3115 35.908 81.0955 36.308C80.8875 36.7 80.7835 37.168 80.7835 37.712C80.7835 38.248 80.8875 38.72 81.0955 39.128C81.3115 39.528 81.6035 39.836 81.9715 40.052C82.3395 40.26 82.7555 40.364 83.2195 40.364C83.6675 40.364 84.0755 40.256 84.4435 40.04C84.8195 39.824 85.1155 39.516 85.3315 39.116C85.5475 38.716 85.6555 38.252 85.6555 37.724ZM91.4851 34.328C92.2691 34.328 92.9091 34.572 93.4051 35.06C93.9011 35.54 94.1491 36.24 94.1491 37.16V41H93.3211V37.256C93.3211 36.544 93.1411 36 92.7811 35.624C92.4291 35.248 91.9451 35.06 91.3291 35.06C90.6971 35.06 90.1931 35.26 89.8171 35.66C89.4411 36.06 89.2531 36.648 89.2531 37.424V41H88.4131V34.448H89.2531V35.564C89.4611 35.164 89.7611 34.86 90.1531 34.652C90.5451 34.436 90.9891 34.328 91.4851 34.328ZM96.4269 33.212C96.2589 33.212 96.1149 33.152 95.9949 33.032C95.8749 32.912 95.8149 32.764 95.8149 32.588C95.8149 32.412 95.8749 32.268 95.9949 32.156C96.1149 32.036 96.2589 31.976 96.4269 31.976C96.5949 31.976 96.7389 32.036 96.8589 32.156C96.9789 32.268 97.0389 32.412 97.0389 32.588C97.0389 32.764 96.9789 32.912 96.8589 33.032C96.7389 33.152 96.5949 33.212 96.4269 33.212ZM96.8469 34.448V41H96.0069V34.448H96.8469ZM98.3651 37.712C98.3651 37.04 98.4971 36.452 98.7611 35.948C99.0331 35.436 99.4051 35.044 99.8771 34.772C100.357 34.492 100.897 34.352 101.497 34.352C102.121 34.352 102.657 34.496 103.105 34.784C103.561 35.072 103.889 35.44 104.089 35.888V34.448H104.929V41H104.089V39.548C103.881 39.996 103.549 40.368 103.093 40.664C102.645 40.952 102.109 41.096 101.485 41.096C100.893 41.096 100.357 40.956 99.8771 40.676C99.4051 40.396 99.0331 40 98.7611 39.488C98.4971 38.976 98.3651 38.384 98.3651 37.712ZM104.089 37.724C104.089 37.196 103.981 36.732 103.765 36.332C103.549 35.932 103.253 35.624 102.877 35.408C102.509 35.192 102.101 35.084 101.653 35.084C101.189 35.084 100.773 35.188 100.405 35.396C100.037 35.604 99.7451 35.908 99.5291 36.308C99.3211 36.7 99.2171 37.168 99.2171 37.712C99.2171 38.248 99.3211 38.72 99.5291 39.128C99.7451 39.528 100.037 39.836 100.405 40.052C100.773 40.26 101.189 40.364 101.653 40.364C102.101 40.364 102.509 40.256 102.877 40.04C103.253 39.824 103.549 39.516 103.765 39.116C103.981 38.716 104.089 38.252 104.089 37.724ZM110.968 35.888C111.176 35.448 111.504 35.084 111.952 34.796C112.408 34.5 112.948 34.352 113.572 34.352C114.164 34.352 114.696 34.492 115.168 34.772C115.648 35.044 116.02 35.436 116.284 35.948C116.556 36.452 116.692 37.04 116.692 37.712C116.692 38.384 116.556 38.976 116.284 39.488C116.02 40 115.648 40.396 115.168 40.676C114.696 40.956 114.164 41.096 113.572 41.096C112.956 41.096 112.42 40.952 111.964 40.664C111.508 40.368 111.176 40 110.968 39.56V44.096H110.14V34.448H110.968V35.888ZM115.84 37.712C115.84 37.168 115.732 36.7 115.516 36.308C115.308 35.908 115.02 35.604 114.652 35.396C114.284 35.188 113.868 35.084 113.404 35.084C112.956 35.084 112.544 35.192 112.168 35.408C111.8 35.624 111.508 35.932 111.292 36.332C111.076 36.732 110.968 37.196 110.968 37.724C110.968 38.252 111.076 38.716 111.292 39.116C111.508 39.516 111.8 39.824 112.168 40.04C112.544 40.256 112.956 40.364 113.404 40.364C113.868 40.364 114.284 40.26 114.652 40.052C115.02 39.836 115.308 39.528 115.516 39.128C115.732 38.72 115.84 38.248 115.84 37.712ZM120.493 41.096C119.741 41.096 119.125 40.924 118.645 40.58C118.173 40.228 117.909 39.752 117.853 39.152H118.717C118.757 39.52 118.929 39.82 119.233 40.052C119.545 40.276 119.961 40.388 120.481 40.388C120.937 40.388 121.293 40.28 121.549 40.064C121.813 39.848 121.945 39.58 121.945 39.26C121.945 39.036 121.873 38.852 121.729 38.708C121.585 38.564 121.401 38.452 121.177 38.372C120.961 38.284 120.665 38.192 120.289 38.096C119.801 37.968 119.405 37.84 119.101 37.712C118.797 37.584 118.537 37.396 118.321 37.148C118.113 36.892 118.009 36.552 118.009 36.128C118.009 35.808 118.105 35.512 118.297 35.24C118.489 34.968 118.761 34.752 119.113 34.592C119.465 34.432 119.865 34.352 120.313 34.352C121.017 34.352 121.585 34.532 122.017 34.892C122.449 35.244 122.681 35.732 122.713 36.356H121.873C121.849 35.972 121.697 35.664 121.417 35.432C121.145 35.192 120.769 35.072 120.289 35.072C119.865 35.072 119.521 35.172 119.257 35.372C118.993 35.572 118.861 35.82 118.861 36.116C118.861 36.372 118.937 36.584 119.089 36.752C119.249 36.912 119.445 37.04 119.677 37.136C119.909 37.224 120.221 37.324 120.613 37.436C121.085 37.564 121.461 37.688 121.741 37.808C122.021 37.928 122.261 38.104 122.461 38.336C122.661 38.568 122.765 38.876 122.773 39.26C122.773 39.612 122.677 39.928 122.485 40.208C122.293 40.48 122.025 40.696 121.681 40.856C121.337 41.016 120.941 41.096 120.493 41.096ZM129.755 34.448L125.867 44.084H124.991L126.263 40.964L123.575 34.448H124.499L126.731 40.04L128.891 34.448H129.755ZM130.51 37.724C130.51 37.044 130.646 36.452 130.918 35.948C131.19 35.436 131.566 35.044 132.046 34.772C132.526 34.492 133.074 34.352 133.69 34.352C134.498 34.352 135.162 34.552 135.682 34.952C136.21 35.352 136.55 35.896 136.702 36.584H135.802C135.69 36.112 135.446 35.744 135.07 35.48C134.702 35.208 134.242 35.072 133.69 35.072C133.25 35.072 132.854 35.172 132.502 35.372C132.15 35.572 131.87 35.872 131.662 36.272C131.462 36.664 131.362 37.148 131.362 37.724C131.362 38.3 131.462 38.788 131.662 39.188C131.87 39.588 132.15 39.888 132.502 40.088C132.854 40.288 133.25 40.388 133.69 40.388C134.242 40.388 134.702 40.256 135.07 39.992C135.446 39.72 135.69 39.344 135.802 38.864H136.702C136.55 39.536 136.21 40.076 135.682 40.484C135.154 40.892 134.49 41.096 133.69 41.096C133.074 41.096 132.526 40.96 132.046 40.688C131.566 40.408 131.19 40.016 130.918 39.512C130.646 39 130.51 38.404 130.51 37.724ZM141.373 34.328C141.869 34.328 142.313 34.432 142.705 34.64C143.105 34.848 143.417 35.168 143.641 35.6C143.873 36.024 143.989 36.544 143.989 37.16V41H143.161V37.256C143.161 36.544 142.981 36 142.621 35.624C142.269 35.248 141.785 35.06 141.169 35.06C140.537 35.06 140.033 35.26 139.657 35.66C139.281 36.06 139.093 36.648 139.093 37.424V41H138.253V32.12H139.093V35.564C139.301 35.172 139.605 34.868 140.005 34.652C140.413 34.436 140.869 34.328 141.373 34.328ZM148.715 41.096C148.099 41.096 147.543 40.96 147.047 40.688C146.559 40.408 146.171 40.016 145.883 39.512C145.603 39 145.463 38.404 145.463 37.724C145.463 37.044 145.607 36.452 145.895 35.948C146.183 35.436 146.575 35.044 147.071 34.772C147.567 34.492 148.123 34.352 148.739 34.352C149.355 34.352 149.911 34.492 150.407 34.772C150.911 35.044 151.303 35.436 151.583 35.948C151.871 36.452 152.015 37.044 152.015 37.724C152.015 38.396 151.871 38.988 151.583 39.5C151.295 40.012 150.899 40.408 150.395 40.688C149.891 40.96 149.331 41.096 148.715 41.096ZM148.715 40.364C149.147 40.364 149.547 40.268 149.915 40.076C150.283 39.876 150.579 39.58 150.803 39.188C151.035 38.788 151.151 38.3 151.151 37.724C151.151 37.148 151.039 36.664 150.815 36.272C150.591 35.872 150.295 35.576 149.927 35.384C149.559 35.184 149.159 35.084 148.727 35.084C148.295 35.084 147.895 35.184 147.527 35.384C147.159 35.576 146.863 35.872 146.639 36.272C146.423 36.664 146.315 37.148 146.315 37.724C146.315 38.3 146.423 38.788 146.639 39.188C146.863 39.58 147.155 39.876 147.515 40.076C147.883 40.268 148.283 40.364 148.715 40.364ZM154.386 32.12V41H153.546V32.12H154.386ZM159.156 41.096C158.54 41.096 157.984 40.96 157.488 40.688C157 40.408 156.612 40.016 156.324 39.512C156.044 39 155.904 38.404 155.904 37.724C155.904 37.044 156.048 36.452 156.336 35.948C156.624 35.436 157.016 35.044 157.512 34.772C158.008 34.492 158.564 34.352 159.18 34.352C159.796 34.352 160.352 34.492 160.848 34.772C161.352 35.044 161.744 35.436 162.024 35.948C162.312 36.452 162.456 37.044 162.456 37.724C162.456 38.396 162.312 38.988 162.024 39.5C161.736 40.012 161.34 40.408 160.836 40.688C160.332 40.96 159.772 41.096 159.156 41.096ZM159.156 40.364C159.588 40.364 159.988 40.268 160.356 40.076C160.724 39.876 161.02 39.58 161.244 39.188C161.476 38.788 161.592 38.3 161.592 37.724C161.592 37.148 161.48 36.664 161.256 36.272C161.032 35.872 160.736 35.576 160.368 35.384C160 35.184 159.6 35.084 159.168 35.084C158.736 35.084 158.336 35.184 157.968 35.384C157.6 35.576 157.304 35.872 157.08 36.272C156.864 36.664 156.756 37.148 156.756 37.724C156.756 38.3 156.864 38.788 157.08 39.188C157.304 39.58 157.596 39.876 157.956 40.076C158.324 40.268 158.724 40.364 159.156 40.364ZM166.735 34.352C167.351 34.352 167.887 34.496 168.343 34.784C168.799 35.072 169.127 35.436 169.327 35.876V34.448H170.167V41.168C170.167 41.768 170.035 42.3 169.771 42.764C169.515 43.228 169.155 43.584 168.691 43.832C168.227 44.088 167.699 44.216 167.107 44.216C166.267 44.216 165.567 44.016 165.007 43.616C164.455 43.216 164.111 42.672 163.975 41.984H164.803C164.947 42.44 165.219 42.804 165.619 43.076C166.027 43.348 166.523 43.484 167.107 43.484C167.531 43.484 167.911 43.392 168.247 43.208C168.583 43.032 168.847 42.768 169.039 42.416C169.231 42.064 169.327 41.648 169.327 41.168V39.548C169.119 39.996 168.787 40.368 168.331 40.664C167.883 40.952 167.351 41.096 166.735 41.096C166.135 41.096 165.595 40.956 165.115 40.676C164.643 40.396 164.271 40 163.999 39.488C163.735 38.976 163.603 38.384 163.603 37.712C163.603 37.04 163.735 36.452 163.999 35.948C164.271 35.436 164.643 35.044 165.115 34.772C165.595 34.492 166.135 34.352 166.735 34.352ZM169.327 37.724C169.327 37.196 169.219 36.732 169.003 36.332C168.787 35.932 168.491 35.624 168.115 35.408C167.747 35.192 167.339 35.084 166.891 35.084C166.427 35.084 166.011 35.188 165.643 35.396C165.275 35.604 164.983 35.908 164.767 36.308C164.559 36.7 164.455 37.168 164.455 37.712C164.455 38.248 164.559 38.72 164.767 39.128C164.983 39.528 165.275 39.836 165.643 40.052C166.011 40.26 166.427 40.364 166.891 40.364C167.339 40.364 167.747 40.256 168.115 40.04C168.491 39.824 168.787 39.516 169.003 39.116C169.219 38.716 169.327 38.252 169.327 37.724ZM172.505 33.212C172.337 33.212 172.193 33.152 172.073 33.032C171.953 32.912 171.893 32.764 171.893 32.588C171.893 32.412 171.953 32.268 172.073 32.156C172.193 32.036 172.337 31.976 172.505 31.976C172.673 31.976 172.817 32.036 172.937 32.156C173.057 32.268 173.117 32.412 173.117 32.588C173.117 32.764 173.057 32.912 172.937 33.032C172.817 33.152 172.673 33.212 172.505 33.212ZM172.925 34.448V41H172.085V34.448H172.925ZM174.443 37.724C174.443 37.044 174.579 36.452 174.851 35.948C175.123 35.436 175.499 35.044 175.979 34.772C176.459 34.492 177.007 34.352 177.623 34.352C178.431 34.352 179.095 34.552 179.615 34.952C180.143 35.352 180.483 35.896 180.635 36.584H179.735C179.623 36.112 179.379 35.744 179.003 35.48C178.635 35.208 178.175 35.072 177.623 35.072C177.183 35.072 176.787 35.172 176.435 35.372C176.083 35.572 175.803 35.872 175.595 36.272C175.395 36.664 175.295 37.148 175.295 37.724C175.295 38.3 175.395 38.788 175.595 39.188C175.803 39.588 176.083 39.888 176.435 40.088C176.787 40.288 177.183 40.388 177.623 40.388C178.175 40.388 178.635 40.256 179.003 39.992C179.379 39.72 179.623 39.344 179.735 38.864H180.635C180.483 39.536 180.143 40.076 179.615 40.484C179.087 40.892 178.423 41.096 177.623 41.096C177.007 41.096 176.459 40.96 175.979 40.688C175.499 40.408 175.123 40.016 174.851 39.512C174.579 39 174.443 38.404 174.443 37.724ZM182.631 40.304H186.063V41H181.671V40.304L185.043 35.144H181.731V34.448H186.003V35.144L182.631 40.304ZM190.555 34.328C191.339 34.328 191.979 34.572 192.475 35.06C192.971 35.54 193.219 36.24 193.219 37.16V41H192.391V37.256C192.391 36.544 192.211 36 191.851 35.624C191.499 35.248 191.015 35.06 190.399 35.06C189.767 35.06 189.263 35.26 188.887 35.66C188.511 36.06 188.323 36.648 188.323 37.424V41H187.483V34.448H188.323V35.564C188.531 35.164 188.831 34.86 189.223 34.652C189.615 34.436 190.059 34.328 190.555 34.328ZM201.005 37.388C201.005 37.676 200.997 37.896 200.981 38.048H195.545C195.569 38.544 195.689 38.968 195.905 39.32C196.121 39.672 196.405 39.94 196.757 40.124C197.109 40.3 197.493 40.388 197.909 40.388C198.453 40.388 198.909 40.256 199.277 39.992C199.653 39.728 199.901 39.372 200.021 38.924H200.909C200.749 39.564 200.405 40.088 199.877 40.496C199.357 40.896 198.701 41.096 197.909 41.096C197.293 41.096 196.741 40.96 196.253 40.688C195.765 40.408 195.381 40.016 195.101 39.512C194.829 39 194.693 38.404 194.693 37.724C194.693 37.044 194.829 36.448 195.101 35.936C195.373 35.424 195.753 35.032 196.241 34.76C196.729 34.488 197.285 34.352 197.909 34.352C198.533 34.352 199.077 34.488 199.541 34.76C200.013 35.032 200.373 35.4 200.621 35.864C200.877 36.32 201.005 36.828 201.005 37.388ZM200.153 37.364C200.161 36.876 200.061 36.46 199.853 36.116C199.653 35.772 199.377 35.512 199.025 35.336C198.673 35.16 198.289 35.072 197.873 35.072C197.249 35.072 196.717 35.272 196.277 35.672C195.837 36.072 195.593 36.636 195.545 37.364H200.153Z" fill="#787878"/>
<defs>
<clipPath id="clip0_215_301">
<rect width="46" height="46" fill="white"/>
</clipPath>
</defs>
</svg>
