<svg width="26" height="25" viewBox="0 0 26 25" fill="none" xmlns="http://www.w3.org/2000/svg">
<path d="M23.2957 8.8333L23.2975 17.3857C23.2977 18.1814 22.9554 18.9445 22.3461 19.5072C21.7367 20.07 20.9101 20.3862 20.0481 20.3864L5.74814 20.3896C4.88619 20.3898 4.05947 20.0739 3.44986 19.5114C2.84025 18.9489 2.49768 18.1859 2.49752 17.3903L2.49574 8.83788L12.5667 14.3053C12.6667 14.3597 12.7808 14.3884 12.8969 14.3884C13.013 14.3884 13.127 14.3596 13.2271 14.3051L23.2957 8.8333ZM20.0449 4.78642C20.8446 4.78612 21.6163 5.058 22.2124 5.55003C22.8085 6.04206 23.1872 6.71969 23.276 7.45331L12.8966 13.092L2.51496 7.45788C2.60341 6.72423 2.98179 6.04642 3.5777 5.55413C4.17361 5.06184 4.94521 4.78963 5.7449 4.78957L20.0449 4.78642Z" fill="#FF7918"/>
</svg>