<svg width="26" height="25" viewBox="0 0 26 25" fill="none" xmlns="http://www.w3.org/2000/svg">
<path d="M22.1943 17.64L17.7905 13.944C17.5823 13.7693 17.3088 13.6762 17.0276 13.6842C16.7465 13.6922 16.4797 13.8008 16.2836 13.987L13.6912 16.448C13.0672 16.338 11.8127 15.977 10.5213 14.788C9.23 13.595 8.83892 12.434 8.723 11.862L11.3869 9.468C11.5889 9.28712 11.7066 9.04082 11.7153 8.7812C11.724 8.52159 11.623 8.26904 11.4335 8.07699L7.43058 4.01299C7.24105 3.82035 6.97762 3.7035 6.69625 3.68725C6.41488 3.67101 6.13773 3.75665 5.92367 3.92599L3.57283 5.78699C3.38554 5.96051 3.27375 6.19145 3.25867 6.43599C3.24242 6.68599 2.93258 12.608 7.90725 17.202C12.2471 21.207 17.6833 21.5 19.1804 21.5C19.3993 21.5 19.5336 21.494 19.5693 21.492C19.8342 21.4783 20.0843 21.3747 20.2713 21.201L22.2863 19.03C22.4705 18.833 22.564 18.5774 22.5468 18.3177C22.5296 18.058 22.4031 17.8148 22.1943 17.64Z" fill="white"/>
</svg>