<svg width="50" height="50" viewBox="0 0 50 50" fill="none" xmlns="http://www.w3.org/2000/svg">
<g clip-path="url(#clip0_215_364)">
<path d="M43.5516 0.212494H6.8313C3.23442 0.212494 0.307861 3.13984 0.307861 6.73828V43.4555C0.307861 47.0555 3.2352 49.982 6.8313 49.982H43.5516C47.1493 49.982 50.0774 47.0555 50.0774 43.4555V6.73828C50.0774 3.13984 47.1493 0.212494 43.5516 0.212494ZM35.8625 32.0492V44.6312H20.0454V40.093H17.7219C16.9542 40.0928 16.194 39.9413 15.4848 39.6474C14.7756 39.3534 14.1313 38.9226 13.5886 38.3796C13.0459 37.8366 12.6154 37.192 12.3218 36.4826C12.0282 35.7733 11.8772 35.013 11.8774 34.2453V30.1023H9.88989C9.57265 30.1021 9.26842 29.9762 9.0438 29.7522C8.81918 29.5282 8.69249 29.2243 8.69145 28.907C8.69145 28.7406 8.72114 28.5836 8.78052 28.4422L11.8774 20.6437C11.8774 20.6437 12.1977 17.4133 12.4891 16.1766C13.7782 10.6125 19.9821 5.56328 26.7079 5.56328C34.8907 5.56328 41.5274 12.2008 41.5274 20.3906C41.5274 25.1203 39.3118 29.3359 35.8625 32.0492Z" fill="#377BFF"/>
<path d="M36.0382 10.9203L34.2226 12.1992C33.9489 12.037 33.6617 11.899 33.364 11.7867C33.2789 11.7555 33.1945 11.7328 33.1093 11.707L32.7132 9.43985H30.5304L30.1617 11.6227C29.7632 11.725 29.3812 11.875 29.0179 12.0641L27.1398 10.7367L25.5914 12.282L26.8781 14.0898C26.7137 14.3657 26.5748 14.6559 26.4632 14.957C26.4304 15.0422 26.4093 15.1274 26.382 15.2117L24.5078 15.5328V14.4922L23.0765 14.2469C23.0104 13.9985 22.9163 13.7584 22.796 13.5313L23.6734 12.2922L22.6593 11.2805L21.4656 12.1219C21.2906 12.0166 21.1068 11.9267 20.9164 11.8531C20.8664 11.8344 20.814 11.8297 20.7625 11.8141L20.5031 10.3211H19.0781L18.8289 11.7539C18.5793 11.8218 18.338 11.9169 18.1093 12.0375L16.8671 11.1641L15.8585 12.1758L16.7023 13.3695C16.6007 13.5422 16.5062 13.7219 16.4351 13.918C16.4164 13.9695 16.4039 14.0203 16.3882 14.0734L14.9031 14.3281V15.7609L16.3437 16.0078C16.4093 16.2539 16.5007 16.493 16.6164 16.7195L15.7398 17.9602L16.75 18.9727L17.9476 18.1289C18.1218 18.2313 18.3023 18.3258 18.4984 18.3992C18.5484 18.418 18.6007 18.4219 18.6507 18.4398L18.9101 19.9328L20.3343 19.9313L20.5843 18.5C20.8343 18.4336 21.0718 18.3367 21.3015 18.218L22.5382 19.0898L23.5515 18.0789L22.7093 16.8852C22.8109 16.7125 22.9039 16.5344 22.975 16.3399C22.9953 16.2883 22.9992 16.2344 23.0171 16.182L24.1164 15.993V17.7852L26.2984 18.1602C26.4007 18.5586 26.5515 18.9406 26.7414 19.3039L25.4171 21.1781L26.9562 22.7219L28.771 21.443C29.0421 21.6008 29.3257 21.7414 29.6304 21.8531C29.7156 21.8859 29.8007 21.907 29.8859 21.9344L30.2812 24.2031H32.1749L32.0179 25.1117C31.7445 25.1742 31.4859 25.282 31.2429 25.418L30.3367 24.7781L29.6265 25.4883L30.2398 26.3563C30.1319 26.5254 30.0423 26.7056 29.9726 26.8938C29.9445 26.9711 29.9335 27.0477 29.9117 27.1242L28.8125 27.3117V28.3141L29.864 28.4961C29.925 28.7711 30.0328 29.0289 30.1703 29.2734L29.5304 30.1781L30.2374 30.8914L31.1054 30.2758C31.2734 30.3828 31.4523 30.4742 31.6453 30.5461C31.7226 30.5742 31.8007 30.5852 31.8789 30.607L32.0593 31.7008H33.0648L33.2484 30.6531C33.5234 30.5922 33.7812 30.4844 34.0257 30.3469L34.9265 30.9867L35.6398 30.275L35.0273 29.4125C35.1351 29.2438 35.2289 29.0641 35.2999 28.8703C35.3273 28.7945 35.3375 28.718 35.3593 28.6406L36.4492 28.4531V27.4477L35.4031 27.268C35.3399 26.9954 35.2367 26.7337 35.0968 26.4914L35.7351 25.5852L35.0242 24.875L34.1578 25.4836C33.9885 25.3755 33.8083 25.2854 33.6203 25.2149C33.546 25.1875 33.4703 25.1774 33.3945 25.157L33.2031 24.0633H32.4851L32.832 22.018C33.2289 21.9164 33.6093 21.7664 33.971 21.5781L35.8515 22.9055L37.3929 21.3633L36.1117 19.5484C36.2703 19.2773 36.4132 18.9922 36.5265 18.6875C36.5578 18.6031 36.5796 18.518 36.607 18.4328L38.875 18.043V15.8594L36.6898 15.4828C36.5863 15.0886 36.4387 14.7073 36.25 14.3461L37.5742 12.4656L36.0382 10.9227V10.9203ZM19.6484 16.5617C19.2332 16.5617 18.8349 16.3968 18.5413 16.1032C18.2477 15.8096 18.0828 15.4113 18.0828 14.9961C18.0828 14.5809 18.2477 14.1826 18.5413 13.889C18.8349 13.5954 19.2332 13.4305 19.6484 13.4305C20.0636 13.4305 20.4618 13.5954 20.7555 13.889C21.0491 14.1826 21.214 14.5809 21.214 14.9961C21.214 15.4113 21.0491 15.8096 20.7555 16.1032C20.4618 16.3968 20.0636 16.5617 19.6484 16.5617ZM32.639 26.3844C33.4992 26.3844 34.1968 27.0836 34.1968 27.9477C34.1973 28.1527 34.1574 28.3559 34.0794 28.5455C34.0014 28.7351 33.8868 28.9075 33.7421 29.0528C33.5975 29.1982 33.4256 29.3135 33.2363 29.3924C33.047 29.4713 32.8441 29.5121 32.639 29.5125C32.2237 29.5127 31.8253 29.348 31.5314 29.0545C31.2376 28.7611 31.0722 28.363 31.0718 27.9477C31.0718 27.0836 31.775 26.3844 32.639 26.3844ZM31.439 18.2563C30.5796 18.2563 29.8789 17.5586 29.8789 16.693C29.8789 16.2792 30.0432 15.8824 30.3358 15.5898C30.6284 15.2972 31.0252 15.1328 31.439 15.1328C31.8528 15.1328 32.2496 15.2972 32.5422 15.5898C32.8348 15.8824 32.9992 16.2792 32.9992 16.693C32.9997 16.8981 32.9597 17.1014 32.8815 17.2911C32.8033 17.4808 32.6885 17.6532 32.5435 17.7984C32.3986 17.9436 32.2264 18.0588 32.0369 18.1374C31.8474 18.216 31.6442 18.2564 31.439 18.2563ZM15.5187 20.2906C15.0799 20.2906 14.659 20.465 14.3487 20.7753C14.0383 21.0856 13.864 21.5065 13.864 21.9453C13.864 22.3842 14.0383 22.805 14.3487 23.1154C14.659 23.4257 15.0799 23.6 15.5187 23.6C15.9589 23.6002 16.3811 23.4256 16.6926 23.1146C17.004 22.8036 17.1792 22.3816 17.1796 21.9414C17.178 21.5023 17.0022 21.0817 16.6908 20.7721C16.3794 20.4625 15.9578 20.289 15.5187 20.2899V20.2906Z" fill="#377BFF"/>
</g>
<defs>
<clipPath id="clip0_215_364">
<rect width="50" height="50" fill="white"/>
</clipPath>
</defs>
</svg>
