<svg width="50" height="50" viewBox="0 0 50 50" fill="none" xmlns="http://www.w3.org/2000/svg">
<path d="M42.9688 5.46875H7.03125C6.16699 5.46875 5.46875 6.16699 5.46875 7.03125V42.9688C5.46875 43.833 6.16699 44.5312 7.03125 44.5312H42.9688C43.833 44.5312 44.5312 43.833 44.5312 42.9688V7.03125C44.5312 6.16699 43.833 5.46875 42.9688 5.46875ZM33.6914 30.4688H31.4014C30.9033 30.4688 30.4297 30.2295 30.1367 29.8242L25 22.7246L19.8633 29.8242C19.5703 30.2295 19.1016 30.4688 18.5986 30.4688H16.3086C15.9912 30.4688 15.8057 30.1074 15.9912 29.8486L24.6826 17.8369C24.8389 17.6221 25.1563 17.6221 25.3125 17.8369L34.0039 29.8486C34.1943 30.1074 34.0088 30.4688 33.6914 30.4688Z" fill="#858585"/>
</svg>