<svg width="50" height="50" viewBox="0 0 50 50" fill="none" xmlns="http://www.w3.org/2000/svg">
<path d="M45.8334 45.8333H4.16669V41.6667H45.8334V45.8333ZM45.8334 12.5H4.16669V6.25H45.8334V12.5ZM41.6667 14.5833V39.5833H35.4167V22.9167C35.4167 22.9167 30.2084 20.8333 25 20.8333C19.7917 20.8333 14.5834 22.9167 14.5834 22.9167V39.5833H8.33335V14.5833H41.6667ZM30.2084 30.5625H30.1459L30.8542 31.7083L30.9792 31.9583C31.8542 34.0625 31.25 36.4583 29.6042 38C28.125 39.375 26.0417 39.7292 24.125 39.4792C22.3125 39.25 20.625 38.1042 19.6875 36.5208C19.375 36.0417 19.1459 35.4792 19.0209 34.9375L18.75 33.5625C18.6667 31.5625 19.4584 29.4583 20.9584 28.2083C20.2709 29.7083 20.4375 31.5833 21.4584 32.8958L21.5834 33.0625C21.75 33.2083 21.9792 33.2708 22.1667 33.1667C22.3542 33.1042 22.5 32.9167 22.5 32.7083L22.4167 32.4167C21.3125 29.5208 22.25 26.1458 24.5625 24.2292C25.2084 23.7083 26.0417 23.2292 26.8125 23.0208C25.9584 24.7292 26.2709 26.9375 27.6042 28.2708L29.4584 29.7917L30.2084 30.5625M27.3125 36.3333C27.8542 35.8333 28.1875 35 28.125 34.25V33.8542C27.875 32.6042 26.7709 32.2083 26.0417 31.25L25.5417 30.3125C25.2709 30.9375 25.25 31.5208 25.3542 32.2083C25.4792 32.9167 25.7709 33.5208 25.6042 34.25C25.4167 35.0625 24.7917 35.875 23.6875 36.1458C24.3125 36.75 25.3125 37.2292 26.3334 36.8958L27.3125 36.3333Z" fill="white"/>
</svg>