<svg width="73" height="55" viewBox="0 0 73 55" fill="none" xmlns="http://www.w3.org/2000/svg">
<g clip-path="url(#clip0_1_19)">
<path d="M65.13 15C65.13 12.9167 64.4008 11.1458 62.9425 9.6875C61.4842 8.22917 59.7133 7.5 57.63 7.5H55.13V22.5H57.63C59.7133 22.5 61.4842 21.7708 62.9425 20.3125C64.4008 18.8542 65.13 17.0833 65.13 15ZM0.130005 45H70.13C70.13 47.7604 69.1534 50.1172 67.2003 52.0703C65.2472 54.0234 62.8904 55 60.13 55H10.13C7.36959 55 5.01282 54.0234 3.05969 52.0703C1.10657 50.1172 0.130005 47.7604 0.130005 45ZM72.63 15C72.63 19.1406 71.1652 22.6758 68.2355 25.6055C65.3058 28.5352 61.7706 30 57.63 30H55.13V31.25C55.13 33.6458 54.2706 35.7031 52.5519 37.4219C50.8331 39.1406 48.7758 40 46.38 40H18.88C16.4842 40 14.4269 39.1406 12.7081 37.4219C10.9894 35.7031 10.13 33.6458 10.13 31.25V2.5C10.13 1.82292 10.3774 1.23698 10.8722 0.742188C11.367 0.247396 11.9529 0 12.63 0H57.63C61.7706 0 65.3058 1.46484 68.2355 4.39453C71.1652 7.32422 72.63 10.8594 72.63 15Z" fill="white"/>
</g>
<defs>
<clipPath id="clip0_1_19">
<rect width="72.5" height="55" fill="white" transform="translate(0.130005)"/>
</clipPath>
</defs>
</svg>
