<svg width="56" height="55" viewBox="0 0 56 55" fill="none" xmlns="http://www.w3.org/2000/svg">
<path d="M27.63 3.4375C22.6176 3.44341 17.8121 5.43722 14.2678 8.98154C10.7235 12.5259 8.72966 17.3313 8.72374 22.3438C8.71774 26.4399 10.0557 30.4249 12.5325 33.6875C12.5325 33.6875 13.0481 34.3664 13.1323 34.4644L27.63 51.5625L42.1345 34.4558C42.2101 34.3647 42.7275 33.6875 42.7275 33.6875L42.7292 33.6823C45.2047 30.4212 46.5421 26.438 46.5362 22.3438C46.5303 17.3313 44.5365 12.5259 40.9922 8.98154C37.4479 5.43722 32.6424 3.44341 27.63 3.4375V3.4375ZM27.63 29.2188C26.2702 29.2188 24.941 28.8155 23.8104 28.0601C22.6799 27.3047 21.7987 26.2309 21.2783 24.9747C20.758 23.7185 20.6218 22.3361 20.8871 21.0025C21.1524 19.6689 21.8071 18.4439 22.7686 17.4824C23.7301 16.5209 24.9551 15.8661 26.2887 15.6009C27.6224 15.3356 29.0047 15.4717 30.2609 15.9921C31.5172 16.5124 32.5909 17.3936 33.3463 18.5242C34.1018 19.6548 34.505 20.984 34.505 22.3438C34.5027 24.1664 33.7777 25.9138 32.4888 27.2026C31.2 28.4914 29.4527 29.2165 27.63 29.2188V29.2188Z" fill="white"/>
</svg>
