<svg width="56" height="55" viewBox="0 0 56 55" fill="none" xmlns="http://www.w3.org/2000/svg">
<path d="M36.1508 25.2083C37.1057 25.2083 37.9169 24.8737 38.5846 24.2046C39.2537 23.5369 39.5883 22.7257 39.5883 21.7708C39.5883 20.816 39.2537 20.0047 38.5846 19.3371C37.9169 18.6679 37.1057 18.3333 36.1508 18.3333C35.196 18.3333 34.3847 18.6679 33.7171 19.3371C33.0479 20.0047 32.7133 20.816 32.7133 21.7708C32.7133 22.7257 33.0479 23.5369 33.7171 24.2046C34.3847 24.8737 35.196 25.2083 36.1508 25.2083ZM20.1092 25.2083C21.064 25.2083 21.8753 24.8737 22.5429 24.2046C23.2121 23.5369 23.5467 22.7257 23.5467 21.7708C23.5467 20.816 23.2121 20.0047 22.5429 19.3371C21.8753 18.6679 21.064 18.3333 20.1092 18.3333C19.1543 18.3333 18.343 18.6679 17.6754 19.3371C17.0062 20.0047 16.6717 20.816 16.6717 21.7708C16.6717 22.7257 17.0062 23.5369 17.6754 24.2046C18.343 24.8737 19.1543 25.2083 20.1092 25.2083ZM28.13 40.1042C30.7272 40.1042 33.0861 39.3693 35.2067 37.8996C37.3257 36.4283 38.8626 34.4896 39.8175 32.0833H16.4425C17.3973 34.4896 18.9351 36.4283 21.0556 37.8996C23.1746 39.3693 25.5328 40.1042 28.13 40.1042ZM28.13 50.4167C24.9598 50.4167 21.9807 49.8147 19.1925 48.6108C16.4043 47.4085 13.9789 45.776 11.9164 43.7135C9.85394 41.651 8.22151 39.2257 7.01915 36.4375C5.81526 33.6493 5.21332 30.6701 5.21332 27.5C5.21332 24.3299 5.81526 21.3507 7.01915 18.5625C8.22151 15.7743 9.85394 13.349 11.9164 11.2865C13.9789 9.22395 16.4043 7.59076 19.1925 6.38687C21.9807 5.18451 24.9598 4.58333 28.13 4.58333C31.3001 4.58333 34.2793 5.18451 37.0675 6.38687C39.8557 7.59076 42.281 9.22395 44.3435 11.2865C46.406 13.349 48.0385 15.7743 49.2408 18.5625C50.4447 21.3507 51.0467 24.3299 51.0467 27.5C51.0467 30.6701 50.4447 33.6493 49.2408 36.4375C48.0385 39.2257 46.406 41.651 44.3435 43.7135C42.281 45.776 39.8557 47.4085 37.0675 48.6108C34.2793 49.8147 31.3001 50.4167 28.13 50.4167Z" fill="white"/>
</svg>

