<svg width="56" height="55" viewBox="0 0 56 55" fill="none" xmlns="http://www.w3.org/2000/svg">
<g clip-path="url(#clip0_1_11)">
<path d="M47.0742 8.05585C42.098 3.07963 35.2234 0 27.63 0C12.4432 0 0.130005 12.3132 0.130005 27.5C0.130005 42.6869 12.4432 55 27.63 55C42.8169 55 55.13 42.6868 55.13 27.5C55.13 19.9066 52.0504 13.032 47.0742 8.05585V8.05585ZM41.4939 12.0126L46.4499 16.9686L27.8484 35.5701L27.846 35.5676L27.8436 35.5701L14.82 22.5464L15.3635 22.0029L19.2158 18.1506L19.776 17.5905L27.846 25.6605L41.4939 12.0126V12.0126Z" fill="white"/>
</g>
<defs>
<clipPath id="clip0_1_11">
<rect width="55" height="55" fill="white" transform="translate(0.130005)"/>
</clipPath>
</defs>
</svg>
