<svg width="202" height="50" viewBox="0 0 202 50" fill="none" xmlns="http://www.w3.org/2000/svg">
<path d="M25 27.7771L5.78544 40.5875C5.62857 40.6919 5.44633 40.7518 5.25813 40.7608C5.06992 40.7698 4.8828 40.7276 4.71669 40.6386C4.55057 40.5497 4.4117 40.4174 4.31484 40.2557C4.21799 40.0941 4.16678 39.9093 4.16669 39.7208V10.2792C4.16678 10.0907 4.21799 9.90588 4.31484 9.74426C4.4117 9.58263 4.55057 9.45031 4.71669 9.36137C4.8828 9.27244 5.06992 9.23022 5.25813 9.23923C5.44633 9.24823 5.62857 9.30811 5.78544 9.4125L25 22.2229V10.2792C25.0001 10.0907 25.0513 9.90588 25.1482 9.74426C25.245 9.58263 25.3839 9.45031 25.55 9.36137C25.7161 9.27244 25.9033 9.23022 26.0915 9.23923C26.2797 9.24823 26.4619 9.30811 26.6188 9.4125L48.7 24.1333C48.8427 24.2285 48.9597 24.3573 49.0406 24.5085C49.1215 24.6597 49.1638 24.8285 49.1638 25C49.1638 25.1715 49.1215 25.3403 49.0406 25.4915C48.9597 25.6427 48.8427 25.7715 48.7 25.8667L26.6188 40.5875C26.4619 40.6919 26.2797 40.7518 26.0915 40.7608C25.9033 40.7698 25.7161 40.7276 25.55 40.6386C25.3839 40.5497 25.245 40.4174 25.1482 40.2557C25.0513 40.0941 25.0001 39.9093 25 39.7208V27.7771V27.7771Z" fill="#377BFF"/>
<path d="M61.9805 9.9375H67.6289C68.9102 9.9375 69.9922 10.1328 70.875 10.5234C71.7656 10.9141 72.4414 11.4922 72.9023 12.2578C73.3711 13.0156 73.6055 13.9492 73.6055 15.0586C73.6055 15.8398 73.4453 16.5547 73.125 17.2031C72.8125 17.8438 72.3594 18.3906 71.7656 18.8438C71.1797 19.2891 70.4766 19.6211 69.6562 19.8398L69.0234 20.0859H63.7148L63.6914 18.2461H67.6992C68.5117 18.2461 69.1875 18.1055 69.7266 17.8242C70.2656 17.5352 70.6719 17.1484 70.9453 16.6641C71.2188 16.1797 71.3555 15.6445 71.3555 15.0586C71.3555 14.4023 71.2266 13.8281 70.9688 13.3359C70.7109 12.8438 70.3047 12.4648 69.75 12.1992C69.2031 11.9258 68.4961 11.7891 67.6289 11.7891H64.2422V27H61.9805V9.9375ZM71.9531 27L67.8047 19.2656L70.1602 19.2539L74.3672 26.8594V27H71.9531ZM98.8894 25.1602V27H89.8542V25.1602H98.8894ZM90.3112 9.9375V27H88.0495V9.9375H90.3112ZM97.6941 17.2734V19.1133H89.8542V17.2734H97.6941ZM98.7722 9.9375V11.7891H89.8542V9.9375H98.7722ZM115.232 9.9375V27H112.97V9.9375H115.232ZM122.38 17.6133V19.4648H114.74V17.6133H122.38ZM123.54 9.9375V11.7891H114.74V9.9375H123.54ZM147.863 25.1602V27H139.332V25.1602H147.863ZM139.777 9.9375V27H137.516V9.9375H139.777ZM172.573 25.1602V27H163.538V25.1602H172.573ZM163.995 9.9375V27H161.733V9.9375H163.995ZM171.378 17.2734V19.1133H163.538V17.2734H171.378ZM172.456 9.9375V11.7891H163.538V9.9375H172.456ZM188.119 9.9375L192.22 16.4766L196.322 9.9375H198.959L193.568 18.3867L199.088 27H196.427L192.22 20.332L188.013 27H185.353L190.873 18.3867L185.482 9.9375H188.119Z" fill="black"/>
<path d="M64.884 36.668C65.356 36.756 65.756 36.996 66.084 37.388C66.412 37.78 66.576 38.236 66.576 38.756C66.576 39.18 66.468 39.564 66.252 39.908C66.044 40.244 65.736 40.512 65.328 40.712C64.92 40.904 64.432 41 63.864 41H60.96V32.612H63.78C64.628 32.612 65.272 32.808 65.712 33.2C66.16 33.592 66.384 34.1 66.384 34.724C66.384 35.244 66.244 35.668 65.964 35.996C65.684 36.316 65.324 36.54 64.884 36.668ZM61.8 36.32H63.756C64.324 36.32 64.76 36.188 65.064 35.924C65.376 35.652 65.532 35.28 65.532 34.808C65.532 34.344 65.376 33.98 65.064 33.716C64.76 33.452 64.312 33.32 63.72 33.32H61.8V36.32ZM63.804 40.292C64.412 40.292 64.884 40.148 65.22 39.86C65.564 39.572 65.736 39.176 65.736 38.672C65.736 38.168 65.556 37.768 65.196 37.472C64.844 37.168 64.368 37.016 63.768 37.016H61.8V40.292H63.804ZM66.8962 37.712C66.8962 37.04 67.0282 36.452 67.2922 35.948C67.5642 35.436 67.9362 35.044 68.4082 34.772C68.8882 34.492 69.4282 34.352 70.0282 34.352C70.6522 34.352 71.1882 34.496 71.6362 34.784C72.0922 35.072 72.4202 35.44 72.6202 35.888V34.448H73.4602V41H72.6202V39.548C72.4122 39.996 72.0802 40.368 71.6242 40.664C71.1762 40.952 70.6402 41.096 70.0162 41.096C69.4242 41.096 68.8882 40.956 68.4082 40.676C67.9362 40.396 67.5642 40 67.2922 39.488C67.0282 38.976 66.8962 38.384 66.8962 37.712ZM72.6202 37.724C72.6202 37.196 72.5122 36.732 72.2962 36.332C72.0802 35.932 71.7842 35.624 71.4082 35.408C71.0402 35.192 70.6322 35.084 70.1842 35.084C69.7202 35.084 69.3042 35.188 68.9362 35.396C68.5682 35.604 68.2762 35.908 68.0602 36.308C67.8522 36.7 67.7482 37.168 67.7482 37.712C67.7482 38.248 67.8522 38.72 68.0602 39.128C68.2762 39.528 68.5682 39.836 68.9362 40.052C69.3042 40.26 69.7202 40.364 70.1842 40.364C70.6322 40.364 71.0402 40.256 71.4082 40.04C71.7842 39.824 72.0802 39.516 72.2962 39.116C72.5122 38.716 72.6202 38.252 72.6202 37.724ZM74.1538 37.712C74.1538 37.04 74.2898 36.452 74.5618 35.948C74.8338 35.436 75.2058 35.044 75.6778 34.772C76.1578 34.492 76.6978 34.352 77.2978 34.352C77.8738 34.352 78.3938 34.492 78.8578 34.772C79.3218 35.052 79.6618 35.416 79.8778 35.864V32.12H80.7178V41H79.8778V39.536C79.6778 39.992 79.3498 40.368 78.8938 40.664C78.4378 40.952 77.9018 41.096 77.2858 41.096C76.6858 41.096 76.1458 40.956 75.6658 40.676C75.1938 40.396 74.8218 40 74.5498 39.488C74.2858 38.976 74.1538 38.384 74.1538 37.712ZM79.8778 37.724C79.8778 37.196 79.7698 36.732 79.5538 36.332C79.3378 35.932 79.0418 35.624 78.6658 35.408C78.2978 35.192 77.8898 35.084 77.4418 35.084C76.9778 35.084 76.5618 35.188 76.1938 35.396C75.8258 35.604 75.5338 35.908 75.3178 36.308C75.1098 36.7 75.0058 37.168 75.0058 37.712C75.0058 38.248 75.1098 38.72 75.3178 39.128C75.5338 39.528 75.8258 39.836 76.1938 40.052C76.5618 40.26 76.9778 40.364 77.4418 40.364C77.8898 40.364 78.2978 40.256 78.6658 40.04C79.0418 39.824 79.3378 39.516 79.5538 39.116C79.7698 38.716 79.8778 38.252 79.8778 37.724ZM81.4115 37.712C81.4115 37.04 81.5435 36.452 81.8075 35.948C82.0795 35.436 82.4515 35.044 82.9235 34.772C83.4035 34.492 83.9435 34.352 84.5435 34.352C85.1675 34.352 85.7035 34.496 86.1515 34.784C86.6075 35.072 86.9355 35.44 87.1355 35.888V34.448H87.9755V41H87.1355V39.548C86.9275 39.996 86.5955 40.368 86.1395 40.664C85.6915 40.952 85.1555 41.096 84.5315 41.096C83.9395 41.096 83.4035 40.956 82.9235 40.676C82.4515 40.396 82.0795 40 81.8075 39.488C81.5435 38.976 81.4115 38.384 81.4115 37.712ZM87.1355 37.724C87.1355 37.196 87.0275 36.732 86.8115 36.332C86.5955 35.932 86.2995 35.624 85.9235 35.408C85.5555 35.192 85.1475 35.084 84.6995 35.084C84.2355 35.084 83.8195 35.188 83.4515 35.396C83.0835 35.604 82.7915 35.908 82.5755 36.308C82.3675 36.7 82.2635 37.168 82.2635 37.712C82.2635 38.248 82.3675 38.72 82.5755 39.128C82.7915 39.528 83.0835 39.836 83.4515 40.052C83.8195 40.26 84.2355 40.364 84.6995 40.364C85.1475 40.364 85.5555 40.256 85.9235 40.04C86.2995 39.824 86.5955 39.516 86.8115 39.116C87.0275 38.716 87.1355 38.252 87.1355 37.724ZM92.1251 34.328C92.9091 34.328 93.5491 34.572 94.0451 35.06C94.5411 35.54 94.7891 36.24 94.7891 37.16V41H93.9611V37.256C93.9611 36.544 93.7811 36 93.4211 35.624C93.0691 35.248 92.5851 35.06 91.9691 35.06C91.3371 35.06 90.8331 35.26 90.4571 35.66C90.0811 36.06 89.8931 36.648 89.8931 37.424V41H89.0531V34.448H89.8931V35.564C90.1011 35.164 90.4011 34.86 90.7931 34.652C91.1851 34.436 91.6291 34.328 92.1251 34.328ZM96.2269 33.212C96.0589 33.212 95.9149 33.152 95.7949 33.032C95.6749 32.912 95.6149 32.764 95.6149 32.588C95.6149 32.412 95.6749 32.268 95.7949 32.156C95.9149 32.036 96.0589 31.976 96.2269 31.976C96.3949 31.976 96.5389 32.036 96.6589 32.156C96.7789 32.268 96.8389 32.412 96.8389 32.588C96.8389 32.764 96.7789 32.912 96.6589 33.032C96.5389 33.152 96.3949 33.212 96.2269 33.212ZM96.6469 34.448V41H95.8069V34.448H96.6469ZM97.3251 37.712C97.3251 37.04 97.4571 36.452 97.7211 35.948C97.9931 35.436 98.3651 35.044 98.8371 34.772C99.3171 34.492 99.8571 34.352 100.457 34.352C101.081 34.352 101.617 34.496 102.065 34.784C102.521 35.072 102.849 35.44 103.049 35.888V34.448H103.889V41H103.049V39.548C102.841 39.996 102.509 40.368 102.053 40.664C101.605 40.952 101.069 41.096 100.445 41.096C99.8531 41.096 99.3171 40.956 98.8371 40.676C98.3651 40.396 97.9931 40 97.7211 39.488C97.4571 38.976 97.3251 38.384 97.3251 37.712ZM103.049 37.724C103.049 37.196 102.941 36.732 102.725 36.332C102.509 35.932 102.213 35.624 101.837 35.408C101.469 35.192 101.061 35.084 100.613 35.084C100.149 35.084 99.7331 35.188 99.3651 35.396C98.9971 35.604 98.7051 35.908 98.4891 36.308C98.2811 36.7 98.1771 37.168 98.1771 37.712C98.1771 38.248 98.2811 38.72 98.4891 39.128C98.7051 39.528 98.9971 39.836 99.3651 40.052C99.7331 40.26 100.149 40.364 100.613 40.364C101.061 40.364 101.469 40.256 101.837 40.04C102.213 39.824 102.509 39.516 102.725 39.116C102.941 38.716 103.049 38.252 103.049 37.724ZM108.248 35.888C108.456 35.448 108.784 35.084 109.232 34.796C109.688 34.5 110.228 34.352 110.852 34.352C111.444 34.352 111.976 34.492 112.448 34.772C112.928 35.044 113.3 35.436 113.564 35.948C113.836 36.452 113.972 37.04 113.972 37.712C113.972 38.384 113.836 38.976 113.564 39.488C113.3 40 112.928 40.396 112.448 40.676C111.976 40.956 111.444 41.096 110.852 41.096C110.236 41.096 109.7 40.952 109.244 40.664C108.788 40.368 108.456 40 108.248 39.56V44.096H107.42V34.448H108.248V35.888ZM113.12 37.712C113.12 37.168 113.012 36.7 112.796 36.308C112.588 35.908 112.3 35.604 111.932 35.396C111.564 35.188 111.148 35.084 110.684 35.084C110.236 35.084 109.824 35.192 109.448 35.408C109.08 35.624 108.788 35.932 108.572 36.332C108.356 36.732 108.248 37.196 108.248 37.724C108.248 38.252 108.356 38.716 108.572 39.116C108.788 39.516 109.08 39.824 109.448 40.04C109.824 40.256 110.236 40.364 110.684 40.364C111.148 40.364 111.564 40.26 111.932 40.052C112.3 39.836 112.588 39.528 112.796 39.128C113.012 38.72 113.12 38.248 113.12 37.712ZM116.933 41.096C116.181 41.096 115.565 40.924 115.085 40.58C114.613 40.228 114.349 39.752 114.293 39.152H115.157C115.197 39.52 115.369 39.82 115.673 40.052C115.985 40.276 116.401 40.388 116.921 40.388C117.377 40.388 117.733 40.28 117.989 40.064C118.253 39.848 118.385 39.58 118.385 39.26C118.385 39.036 118.313 38.852 118.169 38.708C118.025 38.564 117.841 38.452 117.617 38.372C117.401 38.284 117.105 38.192 116.729 38.096C116.241 37.968 115.845 37.84 115.541 37.712C115.237 37.584 114.977 37.396 114.761 37.148C114.553 36.892 114.449 36.552 114.449 36.128C114.449 35.808 114.545 35.512 114.737 35.24C114.929 34.968 115.201 34.752 115.553 34.592C115.905 34.432 116.305 34.352 116.753 34.352C117.457 34.352 118.025 34.532 118.457 34.892C118.889 35.244 119.121 35.732 119.153 36.356H118.313C118.289 35.972 118.137 35.664 117.857 35.432C117.585 35.192 117.209 35.072 116.729 35.072C116.305 35.072 115.961 35.172 115.697 35.372C115.433 35.572 115.301 35.82 115.301 36.116C115.301 36.372 115.377 36.584 115.529 36.752C115.689 36.912 115.885 37.04 116.117 37.136C116.349 37.224 116.661 37.324 117.053 37.436C117.525 37.564 117.901 37.688 118.181 37.808C118.461 37.928 118.701 38.104 118.901 38.336C119.101 38.568 119.205 38.876 119.213 39.26C119.213 39.612 119.117 39.928 118.925 40.208C118.733 40.48 118.465 40.696 118.121 40.856C117.777 41.016 117.381 41.096 116.933 41.096ZM125.355 34.448L121.467 44.084H120.591L121.863 40.964L119.175 34.448H120.099L122.331 40.04L124.491 34.448H125.355ZM125.27 37.724C125.27 37.044 125.406 36.452 125.678 35.948C125.95 35.436 126.326 35.044 126.806 34.772C127.286 34.492 127.834 34.352 128.45 34.352C129.258 34.352 129.922 34.552 130.442 34.952C130.97 35.352 131.31 35.896 131.462 36.584H130.562C130.45 36.112 130.206 35.744 129.83 35.48C129.462 35.208 129.002 35.072 128.45 35.072C128.01 35.072 127.614 35.172 127.262 35.372C126.91 35.572 126.63 35.872 126.422 36.272C126.222 36.664 126.122 37.148 126.122 37.724C126.122 38.3 126.222 38.788 126.422 39.188C126.63 39.588 126.91 39.888 127.262 40.088C127.614 40.288 128.01 40.388 128.45 40.388C129.002 40.388 129.462 40.256 129.83 39.992C130.206 39.72 130.45 39.344 130.562 38.864H131.462C131.31 39.536 130.97 40.076 130.442 40.484C129.914 40.892 129.25 41.096 128.45 41.096C127.834 41.096 127.286 40.96 126.806 40.688C126.326 40.408 125.95 40.016 125.678 39.512C125.406 39 125.27 38.404 125.27 37.724ZM135.293 34.328C135.789 34.328 136.233 34.432 136.625 34.64C137.025 34.848 137.337 35.168 137.561 35.6C137.793 36.024 137.909 36.544 137.909 37.16V41H137.081V37.256C137.081 36.544 136.901 36 136.541 35.624C136.189 35.248 135.705 35.06 135.089 35.06C134.457 35.06 133.953 35.26 133.577 35.66C133.201 36.06 133.013 36.648 133.013 37.424V41H132.173V32.12H133.013V35.564C133.221 35.172 133.525 34.868 133.925 34.652C134.333 34.436 134.789 34.328 135.293 34.328ZM141.795 41.096C141.179 41.096 140.623 40.96 140.127 40.688C139.639 40.408 139.251 40.016 138.963 39.512C138.683 39 138.543 38.404 138.543 37.724C138.543 37.044 138.687 36.452 138.975 35.948C139.263 35.436 139.655 35.044 140.151 34.772C140.647 34.492 141.203 34.352 141.819 34.352C142.435 34.352 142.991 34.492 143.487 34.772C143.991 35.044 144.383 35.436 144.663 35.948C144.951 36.452 145.095 37.044 145.095 37.724C145.095 38.396 144.951 38.988 144.663 39.5C144.375 40.012 143.979 40.408 143.475 40.688C142.971 40.96 142.411 41.096 141.795 41.096ZM141.795 40.364C142.227 40.364 142.627 40.268 142.995 40.076C143.363 39.876 143.659 39.58 143.883 39.188C144.115 38.788 144.231 38.3 144.231 37.724C144.231 37.148 144.119 36.664 143.895 36.272C143.671 35.872 143.375 35.576 143.007 35.384C142.639 35.184 142.239 35.084 141.807 35.084C141.375 35.084 140.975 35.184 140.607 35.384C140.239 35.576 139.943 35.872 139.719 36.272C139.503 36.664 139.395 37.148 139.395 37.724C139.395 38.3 139.503 38.788 139.719 39.188C139.943 39.58 140.235 39.876 140.595 40.076C140.963 40.268 141.363 40.364 141.795 40.364ZM146.878 35.156V39.224C146.878 39.624 146.954 39.9 147.106 40.052C147.258 40.204 147.526 40.28 147.91 40.28H148.678V41H147.778C147.186 41 146.746 40.864 146.458 40.592C146.17 40.312 146.026 39.856 146.026 39.224V35.156H145.114V34.448H146.026V32.804H146.878V34.448H148.678V35.156H146.878ZM155.151 37.388C155.151 37.676 155.143 37.896 155.127 38.048H149.691C149.715 38.544 149.835 38.968 150.051 39.32C150.267 39.672 150.551 39.94 150.903 40.124C151.255 40.3 151.639 40.388 152.055 40.388C152.599 40.388 153.055 40.256 153.423 39.992C153.799 39.728 154.047 39.372 154.167 38.924H155.055C154.895 39.564 154.551 40.088 154.023 40.496C153.503 40.896 152.847 41.096 152.055 41.096C151.439 41.096 150.887 40.96 150.399 40.688C149.911 40.408 149.527 40.016 149.247 39.512C148.975 39 148.839 38.404 148.839 37.724C148.839 37.044 148.975 36.448 149.247 35.936C149.519 35.424 149.899 35.032 150.387 34.76C150.875 34.488 151.431 34.352 152.055 34.352C152.679 34.352 153.223 34.488 153.687 34.76C154.159 35.032 154.519 35.4 154.767 35.864C155.023 36.32 155.151 36.828 155.151 37.388ZM154.299 37.364C154.307 36.876 154.207 36.46 153.999 36.116C153.799 35.772 153.523 35.512 153.171 35.336C152.819 35.16 152.435 35.072 152.019 35.072C151.395 35.072 150.863 35.272 150.423 35.672C149.983 36.072 149.739 36.636 149.691 37.364H154.299ZM155.464 37.724C155.464 37.044 155.6 36.452 155.872 35.948C156.144 35.436 156.52 35.044 157 34.772C157.48 34.492 158.028 34.352 158.644 34.352C159.452 34.352 160.116 34.552 160.636 34.952C161.164 35.352 161.504 35.896 161.656 36.584H160.756C160.644 36.112 160.4 35.744 160.024 35.48C159.656 35.208 159.196 35.072 158.644 35.072C158.204 35.072 157.808 35.172 157.456 35.372C157.104 35.572 156.824 35.872 156.616 36.272C156.416 36.664 156.316 37.148 156.316 37.724C156.316 38.3 156.416 38.788 156.616 39.188C156.824 39.588 157.104 39.888 157.456 40.088C157.808 40.288 158.204 40.388 158.644 40.388C159.196 40.388 159.656 40.256 160.024 39.992C160.4 39.72 160.644 39.344 160.756 38.864H161.656C161.504 39.536 161.164 40.076 160.636 40.484C160.108 40.892 159.444 41.096 158.644 41.096C158.028 41.096 157.48 40.96 157 40.688C156.52 40.408 156.144 40.016 155.872 39.512C155.6 39 155.464 38.404 155.464 37.724ZM165.488 34.328C165.984 34.328 166.428 34.432 166.82 34.64C167.22 34.848 167.532 35.168 167.756 35.6C167.988 36.024 168.104 36.544 168.104 37.16V41H167.276V37.256C167.276 36.544 167.096 36 166.736 35.624C166.384 35.248 165.9 35.06 165.284 35.06C164.652 35.06 164.148 35.26 163.772 35.66C163.396 36.06 163.208 36.648 163.208 37.424V41H162.368V32.12H163.208V35.564C163.416 35.172 163.72 34.868 164.12 34.652C164.528 34.436 164.984 34.328 165.488 34.328ZM172.193 34.328C172.977 34.328 173.617 34.572 174.113 35.06C174.609 35.54 174.857 36.24 174.857 37.16V41H174.029V37.256C174.029 36.544 173.849 36 173.489 35.624C173.137 35.248 172.653 35.06 172.037 35.06C171.405 35.06 170.901 35.26 170.525 35.66C170.149 36.06 169.961 36.648 169.961 37.424V41H169.121V34.448H169.961V35.564C170.169 35.164 170.469 34.86 170.861 34.652C171.253 34.436 171.697 34.328 172.193 34.328ZM176.295 33.212C176.127 33.212 175.983 33.152 175.863 33.032C175.743 32.912 175.683 32.764 175.683 32.588C175.683 32.412 175.743 32.268 175.863 32.156C175.983 32.036 176.127 31.976 176.295 31.976C176.463 31.976 176.607 32.036 176.727 32.156C176.847 32.268 176.907 32.412 176.907 32.588C176.907 32.764 176.847 32.912 176.727 33.032C176.607 33.152 176.463 33.212 176.295 33.212ZM176.715 34.448V41H175.875V34.448H176.715ZM177.393 37.724C177.393 37.044 177.529 36.452 177.801 35.948C178.073 35.436 178.449 35.044 178.929 34.772C179.409 34.492 179.957 34.352 180.573 34.352C181.381 34.352 182.045 34.552 182.565 34.952C183.093 35.352 183.433 35.896 183.585 36.584H182.685C182.573 36.112 182.329 35.744 181.953 35.48C181.585 35.208 181.125 35.072 180.573 35.072C180.133 35.072 179.737 35.172 179.385 35.372C179.033 35.572 178.753 35.872 178.545 36.272C178.345 36.664 178.245 37.148 178.245 37.724C178.245 38.3 178.345 38.788 178.545 39.188C178.753 39.588 179.033 39.888 179.385 40.088C179.737 40.288 180.133 40.388 180.573 40.388C181.125 40.388 181.585 40.256 181.953 39.992C182.329 39.72 182.573 39.344 182.685 38.864H183.585C183.433 39.536 183.093 40.076 182.565 40.484C182.037 40.892 181.373 41.096 180.573 41.096C179.957 41.096 179.409 40.96 178.929 40.688C178.449 40.408 178.073 40.016 177.801 39.512C177.529 39 177.393 38.404 177.393 37.724ZM184.741 40.304H188.173V41H183.781V40.304L187.153 35.144H183.841V34.448H188.113V35.144L184.741 40.304ZM191.825 34.328C192.609 34.328 193.249 34.572 193.745 35.06C194.241 35.54 194.489 36.24 194.489 37.16V41H193.661V37.256C193.661 36.544 193.481 36 193.121 35.624C192.769 35.248 192.285 35.06 191.669 35.06C191.037 35.06 190.533 35.26 190.157 35.66C189.781 36.06 189.593 36.648 189.593 37.424V41H188.753V34.448H189.593V35.564C189.801 35.164 190.101 34.86 190.493 34.652C190.885 34.436 191.329 34.328 191.825 34.328ZM201.435 37.388C201.435 37.676 201.427 37.896 201.411 38.048H195.975C195.999 38.544 196.119 38.968 196.335 39.32C196.551 39.672 196.835 39.94 197.187 40.124C197.539 40.3 197.923 40.388 198.339 40.388C198.883 40.388 199.339 40.256 199.707 39.992C200.083 39.728 200.331 39.372 200.451 38.924H201.339C201.179 39.564 200.835 40.088 200.307 40.496C199.787 40.896 199.131 41.096 198.339 41.096C197.723 41.096 197.171 40.96 196.683 40.688C196.195 40.408 195.811 40.016 195.531 39.512C195.259 39 195.123 38.404 195.123 37.724C195.123 37.044 195.259 36.448 195.531 35.936C195.803 35.424 196.183 35.032 196.671 34.76C197.159 34.488 197.715 34.352 198.339 34.352C198.963 34.352 199.507 34.488 199.971 34.76C200.443 35.032 200.803 35.4 201.051 35.864C201.307 36.32 201.435 36.828 201.435 37.388ZM200.583 37.364C200.591 36.876 200.491 36.46 200.283 36.116C200.083 35.772 199.807 35.512 199.455 35.336C199.103 35.16 198.719 35.072 198.303 35.072C197.679 35.072 197.147 35.272 196.707 35.672C196.267 36.072 196.023 36.636 195.975 37.364H200.583Z" fill="#787878"/>
</svg>
